<svg xmlns="http://www.w3.org/2000/svg" width="256" height="256"><path fill="#1976D2" fill-opacity=".016" fill-rule="evenodd" d="M0 128.004v128.004l128.25-.254 128.25-.254.254-127.75L257.008 0H0v128.004m.485.496c0 70.4.119 99.053.265 63.672.146-35.38.146-92.98 0-128C.604 29.153.485 58.1.485 128.5"/><path fill="#1976D2" fill-opacity=".382" fill-rule="evenodd" d="M98 7.126c-6.151 1.798-44.23 9.536-76 15.444-7.975 1.483-15.242 3.078-16.15 3.545C3.488 27.33.97 35.323.293 43.762c-.666 8.29 1.806 19.709 4.576 21.134.897.462 6.918 2.117 13.381 3.678 13.273 3.206 12.995 2.871 10.196 12.297-1.722 5.799-1.61 5.722-9.696 6.628-3.967.445-5.75 1.081-5.75 2.05 0 .773 3.661 3.971 8.136 7.107l8.136 5.701-4.886 1.351c-19.093 5.28-21.964 7.14-14.485 9.38 4.318 1.294 5.111 3.132 5.085 11.787-.022 7.586-.67 8.774-5.32 9.755-2.291.483-4.062 1.327-3.935 1.874.127.548 3.727 1.955 8 3.128 8.002 2.196 8.745 3.054 5.633 6.51-.813.902-2.282 1.431-3.265 1.174-1.37-.359-2.349.776-4.193 4.858-2.173 4.81-2.406 6.681-2.406 19.326 0 11.916.343 15.046 2.304 21.029 1.268 3.866 2.638 7.568 3.045 8.227C16.318 203.133 122.035 242 127.03 242c1.045 0 2.381-.9 2.97-2 .589-1.1 1.756-2 2.593-2 .838 0 9.727-3.74 19.755-8.311l18.231-8.312 14.936 14.286c9.128 8.731 15.295 13.927 15.859 13.363.564-.564.476-3.146-.226-6.641-1.781-8.869-1.962-8.674 5.471-5.876 7.345 2.764 8.381 2.948 8.381 1.489 0-1.964-17.085-21.887-20.668-24.102l-3.649-2.255 5.908-2.824c3.25-1.553 17.367-8.017 31.37-14.365 14.004-6.347 25.704-11.785 26-12.083.297-.297-.502-1.385-1.775-2.417-1.576-1.278-3.212-1.697-5.129-1.313-2.608.521-2.952.206-4.686-4.288-1.401-3.633-1.871-7.487-1.871-15.351 0-12.52 1.741-19.697 5.156-21.253 1.602-.73 2.344-1.908 2.344-3.725 0-2.484-.491-2.772-7.566-4.44-4.161-.981-7.29-2.059-6.954-2.395.337-.337 2.954-1.612 5.816-2.834l5.204-2.221-.268-8.075c-.292-8.818-3.214-18.448-6.055-19.954-.923-.489-5.686-1.72-10.587-2.735-7.847-1.625-9.121-2.193-10.687-4.769-.978-1.608-3.944-4.274-6.591-5.924-2.646-1.65-4.362-3.138-3.812-3.307C208.046 76.893 255.061 67 255.772 67c.345 0 .166-.462-.399-1.027-.564-.564-3.315-1.297-6.113-1.629-5.017-.594-5.103-.662-6.174-4.916-.597-2.372-1.086-9.224-1.086-15.226V33.289l5.147-1.394c4.792-1.299 8.096-3.985 6.663-5.418-.341-.341-7.3-1.492-15.465-2.558-34.731-4.534-75.831-10.272-103.467-14.446-16.292-2.46-29.792-4.422-30-4.36-.208.063-3.303.969-6.878 2.013M230.5 35.53C222.456 37.039 131.128 53 130.535 53c-.216 0-.925 2.562-1.575 5.692-1.495 7.204-.787 22.683 1.255 27.404l1.555 3.597 54.756-12.321c30.116-6.777 54.963-12.528 55.215-12.78.252-.252-.096-2.137-.773-4.189s-1.285-8.83-1.35-15.061c-.072-6.886-.51-11.291-1.118-11.228-.55.056-4.15.693-8 1.416M77.408 50.25c-2.478 8.117-2.519 22.542-.079 28.154 2.326 5.35 2.81 4.219 1.028-2.405-2.105-7.828-1.381-21.134 1.466-26.937 2.569-5.237 2.54-5.062.835-5.062-.775 0-2.147 2.637-3.25 6.25m20.918 3.5c-2.197 6.957-2.53 27.358-.506 31 1.961 3.528 3.128 2.636 1.961-1.5-1.929-6.845-1.402-23.049.961-29.5 1.635-4.463 1.804-5.75.753-5.75-.77 0-2.135 2.477-3.169 5.75m-65.692 20.5c-.167.688-1.312 4.175-2.545 7.75-1.232 3.575-2.318 7.272-2.414 8.215-.12 1.177 5.465 5.652 17.79 14.254l17.966 12.538 1.6-5.753c1.825-6.564 4.128-11.311 6.403-13.199C73.674 96.196 73.463 95.758 69 93c-2.2-1.36-4-3.041-4-3.736 0-.695.241-1.264.536-1.264.682 0 32.509 21.792 34.31 23.493 2.797 2.641-.66 2.278-4.874-.511-4.01-2.655-4.545-2.774-6.112-1.355-2.47 2.235-4.554 7.083-5.642 13.126l-.946 5.252 8.922 5.106c4.907 2.808 9.15 4.879 9.427 4.601.278-.277 1.159-4.252 1.959-8.833 1.157-6.626 1.231-9.969.366-16.354-.599-4.414-1.394-8.319-1.767-8.677-.374-.359-8.129-5.587-17.235-11.617L67.387 81.266l-16.108-4.133c-17.921-4.598-18.218-4.644-18.645-2.883m187.91 22.107c.377 2.279.833 4.305 1.014 4.503.181.199 3.508-.886 7.392-2.41 3.884-1.524 6.947-2.886 6.806-3.027-.141-.141-3.775-.921-8.076-1.733l-7.82-1.476.684 4.143m8.956 4.58-7 2.831-.705 7.866c-.977 10.892-1.652 14.101-3.072 14.618-.673.245-21.923 3.971-47.223 8.279s-46.078 7.866-46.173 7.907c-.094.04.503 2.996 1.328 6.568.826 3.572 1.353 8.857 1.173 11.745-.303 4.844-.157 5.252 1.872 5.25 4.175-.002 29.407-9.994 87.05-34.47L242 120.809v-6.726c0-7.163-2.426-16.117-4.344-16.031-.636.029-4.306 1.327-8.156 2.885m-209.268 6.314c-5.647 1.676-10.041 3.274-9.762 3.552.628.628 46.915 11.146 47.31 10.75.33-.33-26.287-17.606-26.885-17.45-.217.056-5.016 1.473-10.663 3.148m-3.533 10.373c.881 3.165 1.025 10.519.278 14.286-.471 2.381.139 2.581 52.523 17.213 29.15 8.143 53.563 14.821 54.25 14.841 1.611.046 1.656-7.61.091-15.402l-1.159-5.772-3.591.65c-1.975.358-7.053.918-11.284 1.244l-7.693.594-9.413-5.482-9.413-5.482-1.157 3.2c-1.252 3.463-4.751 7.2-5.779 6.172-.349-.35-.547-4.287-.439-8.75l.195-8.114-6.289 5.089c-5.895 4.77-8.819 6.184-8.819 4.267 0-.452.726-2.951 1.612-5.554.887-2.603 1.45-4.852 1.25-4.998-.199-.146-10.037-2.431-21.862-5.078-11.825-2.647-22.085-5.035-22.801-5.307-.987-.375-1.108.199-.5 2.383M208 152.573c-56.445 22.255-74.438 29.806-76.615 32.15-1.163 1.252-2.564 2.277-3.113 2.277-2.96 0-4.791 24.232-2.955 39.128.798 6.481.879 6.624 3.627 6.408 1.546-.122 4.328-1.153 6.183-2.293 1.855-1.139 9.223-4.637 16.373-7.773s13.36-6.033 13.8-6.436c1.289-1.182-1.111-17.026-3.094-20.42-.998-1.709-3.27-4.089-5.05-5.288l-3.236-2.181-5.42 2.397c-3.476 1.538-5.649 2.026-6.06 1.361-.352-.57-.483-1.181-.29-1.358.7-.642 48.161-20.545 48.994-20.545 2.525 0 .143 2.047-5.144 4.42-3.3 1.48-6 2.902-6 3.158 0 .255 1.117 2.153 2.483 4.217 2.724 4.116 4.517 11.793 4.517 19.341 0 2.675.182 4.864.404 4.864.222 0 12.19-5.625 26.596-12.5s26.599-12.5 27.096-12.5c1.231 0 1.197-.201-1.214-7.282-2.525-7.413-2.775-21.496-.515-28.968.791-2.613 1.144-4.716.785-4.674-.359.042-14.827 5.666-32.152 12.497"/><path fill="#1976D2" fill-opacity=".413" fill-rule="evenodd" d="M99.5 7.121c-6.113 1.934-24.886 5.854-56.991 11.9-18.146 3.417-34.03 6.607-35.299 7.089-4.602 1.75-7.775 15.837-6.15 27.309 1.557 10.997 1.27 10.746 16.566 14.502l13.482 3.311-.666 3.134c-.366 1.724-1.431 5.384-2.365 8.134l-1.7 5-5.939.305c-3.266.168-6.32.685-6.787 1.149-.838.833 6.744 7.394 12.421 10.748 1.611.951 2.928 2.02 2.928 2.375s-3.712 1.69-8.25 2.968c-15.475 4.357-17.801 6.056-10.853 7.927 2.144.577 4.152 1.714 4.464 2.527 1.405 3.661 1.784 11.532.711 14.782-1.003 3.039-1.777 3.659-5.855 4.686-5.492 1.383-4.883 1.903 5.283 4.507 3.85.987 7.306 2.071 7.68 2.41 1.155 1.045-4.123 6.352-5.711 5.742C13.071 146.323 9 158.569 9 170.094c0 9.109 2.04 20.574 4.799 26.968l1.969 4.563 38.866 14.646c43.482 16.385 56.072 20.921 66.031 23.791 6.83 1.968 6.836 1.968 8.495-.046.913-1.109 2.194-2.016 2.846-2.016.653 0 9.737-3.888 20.187-8.64l19.002-8.64 14.165 14.14c13.903 13.879 17.524 16.526 16.26 11.89-1.033-3.788-1.933-12.75-1.281-12.75.339 0 3.62 1.131 7.292 2.513 7.098 2.672 8.501 2.618 6.267-.239-7.249-9.271-15.68-18.808-18.948-21.434-2.192-1.762-3.641-3.533-3.218-3.936.422-.403 14.402-6.905 31.066-14.45 23.306-10.552 30.222-14.091 29.969-15.336-.243-1.197-1.415-1.596-4.506-1.535-3.927.078-4.268-.143-5.688-3.692-4.951-12.373-3.05-35.986 3.123-38.798 1.707-.778 2.345-1.772 2.122-3.307-.268-1.847-1.586-2.508-8.318-4.172l-8-1.976 6.25-2.822 6.25-2.823v-7.459c0-8.625-2.903-17.787-6.334-19.987-1.191-.764-6.109-2.162-10.928-3.107-7.644-1.499-8.922-2.052-10.009-4.329-.686-1.436-3.683-4.184-6.661-6.107l-5.414-3.496 7.423-1.647A2759.73 2759.73 0 0 1 232 71.567c6.875-1.457 14.863-3.152 17.75-3.767 6.657-1.418 6.756-2.8.199-2.8-4.757 0-5.129-.189-6.39-3.25-1.67-4.051-2.922-22.243-1.8-26.151.689-2.403 1.65-3.108 5.597-4.111 5.318-1.35 7.569-2.979 6.094-4.41-.522-.506-14.9-2.778-31.95-5.047-36.196-4.817-98.433-13.691-105.723-15.073-6.153-1.167-12.267-1.106-16.277.163M9.172 35.076c-2.409 10.435-.879 28.055 2.55 29.371 1.195.458 1.364.099.791-1.682-1.613-5.022-1.759-22.439-.232-27.649C13.674 30.364 13.659 30 12.062 30c-1.245 0-2.041 1.398-2.89 5.076m224.328-.517c-.55.22-23.275 4.255-50.5 8.968-27.225 4.712-50.277 8.798-51.228 9.08-4.103 1.219-5.68 22.428-2.39 32.143.979 2.888 2.066 5.25 2.418 5.25.351 0 8.528-1.793 18.17-3.985 9.641-2.191 29.68-6.708 44.53-10.038 14.85-3.329 31.785-7.188 37.634-8.575l10.634-2.521-1.384-4.599c-.811-2.695-1.384-9.089-1.384-15.441V34l-2.75.079c-1.512.043-3.2.259-3.75.48M76.987 50.044c-3.291 11.049-2.094 30.42 1.963 31.773.996.332 1.179-.179.692-1.933-.364-1.311-1.193-5.387-1.842-9.058-1.351-7.635-.189-16.441 3.027-22.94 1.042-2.107 1.657-4.068 1.367-4.358-1.746-1.747-3.341.248-5.207 6.516m21.512 2.311c-2.834 9.749-3.475 16.388-2.406 24.913C97.229 86.333 97.474 87 99.666 87c1.079 0 1.332-.53.835-1.75-.393-.963-.932-6.7-1.198-12.75-.407-9.222-.155-12.039 1.556-17.426 1.123-3.535 1.812-6.797 1.532-7.25-1.193-1.931-2.433-.486-3.892 4.531M32.544 73.181c-.245.725-.963 3.344-1.597 5.819-.633 2.475-2.006 6.273-3.05 8.44-1.045 2.167-1.526 4.192-1.069 4.5.457.308 8.831 6.133 18.61 12.944 18.045 12.57 19.5 13.157 19.547 7.886.024-2.698 3.074-9.942 5.666-13.453C71.943 97.566 73 95.938 73 95.7c0-.239-1.907-1.696-4.237-3.238s-3.702-2.982-3.049-3.2c1.121-.374 32.647 20.895 33.844 22.832 1.022 1.654-1.045.939-4.942-1.709l-3.848-2.615-2.849 2.865c-2.851 2.867-6.611 14.118-5.6 16.755.388 1.011 16.993 11.61 18.189 11.61.196 0 1.123-3.449 2.061-7.664 1.633-7.342 1.58-20.026-.109-25.836-.475-1.632-16.198-12.694-32.643-22.966-1.475-.922-9.548-3.441-17.938-5.597-8.39-2.157-16.073-4.181-17.072-4.498-1.051-.334-2.005-.021-2.263.742M168 92.552c-.825.177-3.602.597-6.172.934l-4.672.613 1.883 4.256c4.4 9.947 4.589 24.662.422 32.721l-1.617 3.126 4.328-.674c8.432-1.313 8.78-1.712 10.899-12.483 1.735-8.819-.301-29.353-2.868-28.929-.387.064-1.378.26-2.203.436m52.083 3.656c.456 2.36.849 4.623.873 5.027.038.642 3.952-.702 13.044-4.477 2.463-1.023 2.441-1.056-1.5-2.254-2.2-.669-6.081-1.525-8.623-1.903l-4.624-.686.83 4.293m-88.333.527c-2.613.206-4.75.622-4.75.925 0 .303.742 3.316 1.65 6.696 1.753 6.532 2.423 25.567 1.108 31.481l-.743 3.336 4.243-.659c7.747-1.205 7.35-.66 8.685-11.923 1.642-13.856-.695-30.902-4.168-30.411-.701.099-3.412.349-6.025.555m97.75 3.75-8 3.306-.671 10.692c-.369 5.881-.819 10.84-1 11.02-.316.315-48.169 8.726-79.204 13.923-8.181 1.369-15.059 2.675-15.284 2.9-.226.226.044 2.382.6 4.792.555 2.41 1.021 7.858 1.035 12.107l.024 7.725 3.25-.608c7.308-1.367 30.076-10.449 91.134-36.354l21.884-9.284-.604-7.102c-.598-7.019-3.237-16.685-4.508-16.513-.361.049-4.256 1.577-8.656 3.396m-157.936 1.206c-1.509 2.221-3.341 7.499-4.598 13.25a6331.134 6331.134 0 0 1-2.922 13.309c-.457 2.063-.635 3.75-.395 3.75s2.645-2.065 5.344-4.59c2.699-2.524 5.379-4.298 5.957-3.941.581.359 1.064 4.081 1.08 8.34.039 9.844 1.356 7.923 4.032-5.881 1.995-10.291 3.617-14.587 6.372-16.873.861-.715 1.566-1.678 1.566-2.14C88 105.908 76.548 98 75.091 98c-.56 0-2.148 1.661-3.527 3.691m-51.925 5.308c-5.423 1.589-10.07 3.098-10.325 3.354-.256.255.372.73 1.395 1.055 3.711 1.178 48.799 11.4 49.08 11.127.534-.517-27.784-18.536-29.044-18.48-.685.031-5.682 1.355-11.106 2.944M16.5 124.912v9.912l8 2.17c12.428 3.373 78.832 21.88 89.956 25.072 5.475 1.571 10.166 2.646 10.423 2.388.875-.875.279-13.153-.841-17.311-1.267-4.709-.811-4.604-13.122-3.025-8.436 1.082-8.894 1.035-14.068-1.435-2.941-1.405-7.681-3.953-10.532-5.663l-5.183-3.108-2.01 4.544C77.979 141.04 76.441 143 75.556 143c-1.278 0-1.556-1.427-1.556-8 0-7.319-.853-9.665-2.528-6.954-1.243 2.01-10.664 8.953-11.472 8.454-.448-.277-.098-2.745.778-5.483.875-2.739 1.366-5.206 1.09-5.483-.378-.377-43.905-10.537-45.131-10.533-.13 0-.237 4.46-.237 9.911m201.5 8.76c-25.457 10.939-72.063 30.219-78 32.268-13.705 4.731-14.348 4.631-73.225-11.413-17.201-4.687-33.2-9.035-35.554-9.662-2.353-.628-4.524-.895-4.825-.595-.643.644 14.639 5.521 57.104 18.225C126.259 175.285 125.169 175 131.229 175c7.069 0 11.008-1.4 63.005-22.386 24.053-9.708 44.978-18.151 46.5-18.763 2.659-1.069 2.496-1.183-4.234-2.959-3.85-1.015-7.225-1.82-7.5-1.789-.275.032-5.225 2.088-11 4.569m7 11.834c-8.525 3.408-32.296 12.845-52.824 20.972-20.528 8.126-38.593 15.843-40.144 17.149-1.551 1.305-3.273 2.373-3.827 2.373-3.095 0-5.122 30.211-2.899 43.214.794 4.644.853 4.705 4 4.113 1.757-.331 3.893-1.204 4.747-1.941 1.375-1.186 19.276-9.606 29.055-13.667l3.608-1.498-1.248-9.081c-1.403-10.201-3.532-14.689-8.284-17.465-3.206-1.872-3.305-1.869-8.15.215-5.166 2.222-8.13 2.773-6.484 1.205.522-.498 10.175-4.819 21.45-9.602 11.275-4.783 21.963-9.332 23.75-10.108 1.787-.777 3.25-.981 3.25-.454 0 .526-2.69 2.164-5.978 3.64l-5.978 2.682 1.999 2.808c3.008 4.224 4.604 9.595 5.405 18.189.398 4.262 1.077 7.75 1.51 7.75 1.832 0 54.52-25.842 54.298-26.632-.134-.477-1.198-3.568-2.364-6.868-1.81-5.119-2.043-7.469-1.587-16 .294-5.5 1.073-11.485 1.73-13.301.658-1.816 1.032-3.433.831-3.595-.201-.162-7.341 2.494-15.866 5.902m-209.862 4.848c-4.137 5.075-5.339 24.092-2.317 36.646 2.409 10.006 4.032 12.952 8.046 14.611 3.289 1.359 3.351 1.339 2.679-.86-.378-1.238-.93-7.651-1.228-14.251-.495-10.993.722-23.041 3.235-32.039.484-1.733-.186-2.282-4.455-3.647-3.739-1.195-5.264-1.313-5.96-.46m18.698 10.322c-1.427 6.221-1.899 38.838-.627 43.324.626 2.207 3.477 3.536 24.326 11.341 12.989 4.862 23.791 8.666 24.004 8.453.213-.213-.288-2.841-1.113-5.841-3.52-12.794-2.863-29.448 1.686-42.749 1.353-3.954 1.505-5.401.6-5.711-.667-.228-10.946-3.351-22.842-6.94-11.897-3.588-22.321-6.789-23.164-7.112-1.192-.458-1.831.708-2.87 5.235m60.836 19.051c-5.325 19.154-4.225 45.899 2.055 50.014 1.285.841 2.554 1.311 2.822 1.044.267-.268-.29-3.366-1.237-6.886-1.23-4.567-1.737-10.408-1.768-20.399-.038-12.174.263-14.889 2.309-20.814 1.294-3.748 2.194-6.954 2-7.126-.194-.171-1.303-.603-2.465-.959-1.874-.575-2.291 0-3.716 5.126m15.834 4.473c-3.889 12.871-3.835 34.187.118 46.148 1.282 3.881 2.272 5.128 4.957 6.25 6.033 2.521 6.347 2.19 4.6-4.848-2.397-9.654-2.084-33.247.559-42.096l2.045-6.846-3.143-1.284c-7.505-3.068-7.391-3.101-9.136 2.676"/><path fill="#1976D2" fill-opacity=".725" fill-rule="evenodd" d="M93 9.022c-5.775 1.505-27.6 5.987-48.5 9.959-20.9 3.973-38.308 7.411-38.685 7.641-.377.229-1.656 2.995-2.843 6.147C1.152 37.605.876 40.061 1.208 48.5c.592 15.044.906 15.423 15.71 18.98 6.647 1.598 12.592 3.217 13.211 3.6 1.282.792-.418 9.484-2.763 14.12-1.208 2.388-2.022 2.735-7.037 3-3.27.173-5.838.806-6.065 1.495-.217.658 3.01 3.563 7.171 6.455 4.161 2.893 7.565 5.574 7.565 5.957 0 .384-3.262 1.657-7.25 2.83-11.261 3.31-15.813 5.152-15.197 6.148.311.503 1.015.915 1.565.915s.743-.416.428-.925c-.535-.866 1.816-1.703 16.954-6.034l6-1.717 14.796 9.573c8.138 5.264 14.412 9.7 13.943 9.857-.47.156-11.789-2.199-25.155-5.235-13.365-3.035-24.589-5.512-24.942-5.504-.353.008.483.58 1.858 1.271 2.021 1.015 2.676 2.36 3.417 7.022 1.025 6.441-.044 12.537-2.417 13.784-.825.434-2.844 1.076-4.486 1.427-3.804.812-2.419 1.584 7.236 4.03 3.988 1.01 7.25 2.139 7.25 2.509 0 1.901-4.421 5.942-6.501 5.942-1.947 0-2.722.981-4.47 5.653-4.241 11.333-3.299 30.941 2.081 43.344l1.954 4.503 40.718 15.274C102.843 234.053 122.791 241 126.345 241c1.342 0 2.678-.617 2.967-1.371.29-.755 1.689-1.663 3.109-2.02 1.42-.356 10.448-4.239 20.06-8.629 9.613-4.389 17.783-7.98 18.155-7.98.372 0 7.244 6.413 15.27 14.25 15.898 15.524 16.543 15.732 14.148 4.566-.603-2.81-.834-5.369-.515-5.688.319-.319 3.45.422 6.958 1.646S213.372 238 213.98 238c1.832 0-15.155-20.115-19.734-23.368-2.34-1.663-3.915-3.343-3.5-3.734.415-.392 6.829-3.394 14.254-6.674 14.095-6.224 47.213-21.35 47.893-21.873.215-.167-.187-1-.894-1.852-.811-.978-2.562-1.448-4.741-1.274-3.24.258-3.569-.005-5.3-4.225-1.016-2.475-1.871-3.992-1.902-3.372-.031.62.666 2.855 1.547 4.965.882 2.111 1.22 3.967.75 4.125-.469.158-12.976 6.137-27.792 13.287-19.836 9.572-27.149 12.67-27.735 11.748-.437-.689-.802-3.368-.811-5.954-.022-6.983-1.858-14.289-4.609-18.342-1.341-1.977-2.214-3.958-1.94-4.403.275-.444 2.999-1.822 6.053-3.062 3.054-1.239 5.334-2.472 5.066-2.74-.577-.577-45.632 18.468-47.085 19.903-.55.544 1.448.029 4.441-1.144 6.536-2.562 8.877-2.121 12.864 2.42 3.034 3.455 4.377 8.025 5.606 19.069l.557 5-5.734 2.422c-9.928 4.194-24.632 11.109-27.199 12.791-3.433 2.249-7.852 2.468-8.459.418-.266-.897-.968-6.164-1.561-11.705-1.572-14.705 1.042-34.426 4.563-34.426.817 0 1.761-.719 2.098-1.597.337-.879 2.685-2.503 5.218-3.608C145.999 176.384 240.469 139 241.51 139c.162 0-.358 2.137-1.156 4.75-.797 2.613-1.629 8.575-1.848 13.25l-.399 8.5.882-8.273c1.201-11.254 3.627-19.314 6.002-19.935 2.623-.686 3.464-3.486 1.482-4.935-.9-.658-3.962-1.741-6.804-2.406-7.82-1.829-8.506-2.422-5.084-4.396 4.658-2.688 1.738-1.53-32.585 12.929-53.834 22.678-68.748 28.452-73.614 28.504-.694.008-1.35-3.472-1.74-9.238-.345-5.088-.901-10.668-1.236-12.401-.486-2.521-.238-3.257 1.241-3.678 1.017-.289 22.099-3.985 46.849-8.212 24.75-4.227 45.359-8.016 45.797-8.42.439-.403 1.064-5.434 1.389-11.179l.592-10.445 8.418-3.318c4.629-1.824 8.56-3.155 8.733-2.957 2.186 2.489 3.902 8.611 4.328 15.444l.512 8.211-2.884 1.563c-3.435 1.86-2.605 2.155 1.194.424 2.658-1.211 2.671-1.268 2.183-9.822-.365-6.403-1.117-9.864-2.938-13.532l-2.447-4.928-7.939-1.808c-4.366-.994-8.904-2.003-10.085-2.243-1.181-.239-3.018-1.911-4.082-3.714s-4.035-4.393-6.603-5.755c-5.213-2.766-5.717-3.697-2.418-4.468 6.153-1.44 35.978-7.741 41.106-8.685 6.345-1.168 6.053-2.784-.508-2.812-3.211-.013-3.792-.408-4.81-3.265-1.374-3.855-2.596-23.389-1.69-27.001.49-1.951 1.486-2.679 4.393-3.21 4.461-.815 8.825-3.401 7.616-4.513-.471-.433-5.357-1.311-10.857-1.952-16.231-1.892-73.694-9.837-105.788-14.628-16.383-2.445-30.558-4.381-31.5-4.303-.941.079-6.437 1.375-12.212 2.879m4.5.56c-4.837 1.357-62.493 12.907-77.284 15.482-4.006.698-6.931 1.578-6.5 1.956.431.379 6.634 1.853 13.784 3.277 7.15 1.424 30.894 6.214 52.765 10.646C105.973 46.152 122.346 49 126.581 49c3.602 0 20.583-2.503 37.734-5.563 17.152-3.059 36.36-6.461 42.685-7.559 14.187-2.464 41.226-7.771 41.625-8.17.162-.162-7.45-1.265-16.915-2.453-9.466-1.187-40.61-5.553-69.21-9.702-28.6-4.149-53.8-7.506-56-7.459-2.2.047-6.25.716-9 1.488M4.861 31.75c-.6 1.513-1.564 6.206-2.143 10.429-.893 6.513-.783 8.676.725 14.25 1.81 6.687 4.393 9.419 3.139 3.321-2.035-9.897-1.714-18.983 1.008-28.5.935-3.272-1.405-2.843-2.729.5m4.758-1c-.283.962-1.031 4.675-1.662 8.25-1.764 9.992.596 26 3.832 26 1.154 0 1.328-.812.804-3.75-1.734-9.733-1.808-17.878-.217-24.081.893-3.482 1.624-6.744 1.624-7.25 0-1.68-3.856-.949-4.381.831m4.964 5.858c-1.862 7.414-1.94 13.462-.286 22.392l1.203 6.5 8.5 2.152c4.675 1.183 18.097 4.614 29.827 7.624l21.327 5.472-.683-2.624c-2.59-9.963-2.126-20.143 1.461-32.058.569-1.888.929-3.486.801-3.55-.128-.064-13.808-2.837-30.4-6.163l-30.167-6.047-1.583 6.302M231.5 34.6c-3.85.776-27.925 5.028-53.5 9.449s-47.072 8.606-47.771 9.301c-1.515 1.506-3.221 11.161-3.208 18.15.012 5.791 2.26 16.181 3.844 17.765.782.782 13.361-1.661 44.861-8.712 47.513-10.636 66.073-15.019 66.839-15.784.27-.271-.017-1.792-.637-3.38-.621-1.589-1.373-8.626-1.672-15.639-.299-7.013-.816-12.708-1.15-12.656-.333.052-3.756.729-7.606 1.506M78.626 43.796C77.38 45.812 74 60.79 74 64.295c0 2.155.749 7.021 1.664 10.812C76.932 80.363 77.742 82 79.073 82c1.617 0 1.643-.388.348-5.25-2.278-8.559-1.809-20.192 1.098-27.25 1.36-3.3 2.474-6.112 2.476-6.25.012-.647-3.936-.154-4.369.546m4.349 4.253c-1.08 2.117-2.49 6.92-3.134 10.671-1.016 5.924-.918 7.925.745 15.202l1.914 8.379 6.285 1.718 6.284 1.717-.784-6.118c-1.149-8.954-.591-18.205 1.559-25.882l1.895-6.763-2.119-.479c-11.337-2.557-10.494-2.661-12.645 1.555m15.929 1.701C96.148 56.991 94.81 65.763 95.357 73c.829 10.967 1.569 13.747 3.813 14.334 1.837.48 1.906.169 1.142-5.161-1.467-10.248-.836-23.15 1.414-28.872 1.123-2.859 1.795-5.447 1.492-5.75-1.349-1.348-3.353-.327-4.314 2.199m4.594 3.5c-2.289 5.659-3.033 18.652-1.566 27.349l1.187 7.036 9.191 2.199c11.339 2.712 13.157 2.775 12.177.416-3.736-8.991-4.651-23.327-2.113-33.112.992-3.824 1.062-5.388.25-5.624-1.417-.411-15.182-2.514-16.458-2.514-.522 0-1.722 1.913-2.668 4.25M244.75 66.662c.688.278 1.813.278 2.5 0 .688-.277.125-.504-1.25-.504s-1.937.227-1.25.504m-3.937 1.021c.721.289 1.584.253 1.916-.079.332-.332-.258-.568-1.312-.525-1.165.048-1.402.285-.604.604m-4 1c.721.289 1.584.253 1.916-.079.332-.332-.258-.568-1.312-.525-1.165.048-1.402.285-.604.604M31.52 75.744c-.386 2.059-1.79 6.421-3.119 9.692-1.329 3.271-2.076 6.286-1.659 6.698.417.413 8.858 6.362 18.758 13.219 14.815 10.262 18.123 12.174 18.694 10.808.382-.914 1.406-4.246 2.277-7.407.915-3.322 2.91-7.258 4.731-9.332 3.393-3.863 3.516-3.504-2.452-7.166-1.513-.928-2.75-2.067-2.75-2.531 0-1.096-.142-1.186 18.267 11.612 8.672 6.029 15.576 11.153 15.342 11.387-.234.234-2.306-.818-4.604-2.339-3.202-2.119-4.567-2.525-5.842-1.734-2.828 1.753-6.07 8.702-6.721 14.406l-.621 5.443 9.22 5.347c6.675 3.872 9.431 5.008 9.982 4.117 2.812-4.552 3.863-27.428 1.521-33.112-.374-.907-8.267-6.689-17.541-12.85L68.142 80.801l-16.821-4.396c-9.252-2.418-17.333-4.398-17.96-4.401-.626-.002-1.454 1.681-1.841 3.74M17.516 89.915c-1.626.636 1.794 3.252 19 14.533 11.541 7.567 22.221 14.625 23.734 15.685 1.997 1.399 2.75 1.561 2.75.593 0-.734-6.862-6.069-15.25-11.854a11672.927 11672.927 0 0 1-19.462-13.446c-2.317-1.609-4.229-3.713-4.25-4.676-.041-1.872-2.922-2.241-6.522-.835m202.041 5.843c.372 2.608.978 5.073 1.345 5.477.368.405 2.903-.119 5.633-1.165 2.731-1.045 6.315-2.42 7.965-3.056 3.775-1.453 2.463-2.253-6.5-3.962-3.575-.682-7.09-1.419-7.81-1.638-1.015-.308-1.158.67-.633 4.344m-58.307-3.026c-2.338.211-4.25.695-4.249 1.075 0 .381.985 3.168 2.19 6.193 3.182 7.992 3.228 23.509.09 30.308-1.965 4.256-2.023 4.75-.5 4.307.945-.276 3.826-.798 6.402-1.162 4.314-.608 4.809-.976 6.29-4.676 2.851-7.127 3.651-17.822 2.022-27.034-.802-4.534-1.466-8.581-1.477-8.993-.018-.746-2.64-.75-10.768-.018M90 93.301c0 .677 9.472 6.699 10.538 6.699.474 0 .434-.39-.088-.867C98.928 97.744 90 92.761 90 93.301m39.17 3.428c-2.633.324-3.195.762-2.683 2.09 3.195 8.29 4.8 31.665 2.577 37.513-.515 1.354-.742 2.657-.504 2.894.237.238 3.115 0 6.394-.528l5.963-.96.791-4.619c1.21-7.059.866-28.091-.537-32.869-1.193-4.061-1.413-4.243-4.96-4.09-2.041.088-5.21.344-7.041.569M72.692 99.8c-3.223 3.363-5.117 8.601-7.621 21.068-1.064 5.298-2.277 10.532-2.696 11.632-.478 1.256 1.557-.003 5.468-3.38 3.426-2.96 6.529-5.081 6.896-4.714.366.366.912 4.122 1.214 8.347.501 7.033.649 7.454 1.761 4.997.667-1.476 1.931-6.823 2.809-11.881 1.64-9.455 3.293-13.815 6.617-17.458 1.899-2.081 1.884-2.104-3.867-6.085-3.175-2.199-6.267-4.28-6.87-4.626-.603-.346-2.273.599-3.711 2.1m32.503 11.7c.02 1.65.244 2.204.498 1.231.254-.973.237-2.323-.037-3-.274-.677-.481.119-.461 1.769m-88.813 10.832c.065 4.492-.225 9.101-.643 10.241-.726 1.976 1.788 2.783 53.805 17.275 30.011 8.361 54.992 14.939 55.511 14.618 1.31-.81 1.107-8.785-.407-15.966-1.152-5.464-1.482-5.979-3.706-5.767-1.343.128-6.717.504-11.942.835l-9.5.603-8.762-5.086c-4.819-2.797-9.094-5.069-9.5-5.049-.406.02-1.638 1.912-2.738 4.205-3.032 6.32-4.772 6.174-4.448-.372.146-2.953.194-6.848.107-8.655L74 125.927l-6.052 5.037c-8.284 6.894-9.172 6.757-6.437-.994.831-2.355 1.349-4.444 1.151-4.641-.197-.198-10.215-2.602-22.26-5.343-12.046-2.741-22.405-5.172-23.02-5.403-.773-.29-1.082 2.103-1 7.749m89.85-2.332c0 1.925.206 2.713.457 1.75.252-.963.252-2.537 0-3.5-.251-.963-.457-.175-.457 1.75m-1.072 6.625c-.088 1.169-.397 3.644-.687 5.5-.482 3.091-.436 3.167.548.91.59-1.356.899-3.831.686-5.5-.229-1.794-.452-2.166-.547-.91m102.338 11.126c-36.558 15.461-60.597 25.269-68.331 27.879-13.258 4.475-12.618 4.582-76.125-12.706C42.99 147.466 25.976 143 25.233 143c-.743 0-1.08.439-.748.975.759 1.229 18.374 6.905 64.056 20.641 30.623 9.208 36.998 10.818 42.959 10.847 6.814.033 8.382-.521 59-20.841 28.6-11.481 52.352-21.192 52.782-21.581.431-.388-2.495-1.58-6.501-2.649l-7.284-1.944-21.999 9.303m-125.095-5.908c.795 1.286 16.725 10.362 17.256 9.831.472-.472-15.878-10.674-17.107-10.674-.368 0-.436.379-.149.843m149.348 7.947c-7.562 3.05-13.588 5.706-13.391 5.903.329.329 26.608-9.53 27.557-10.338 1.953-1.664-2.505-.268-14.166 4.435m-220.644-3.41c1.031 1.134 103.802 29.044 104.473 28.373.429-.429-95.739-27.307-101.58-28.391-1.925-.357-3.227-.349-2.893.018m10.352 10.687c-.363.586-.502 1.202-.309 1.368.192.166 5.3 1.75 11.35 3.521 51.241 14.998 91.791 28.092 94.454 30.502 1.519 1.375 1.921 1.397 2.948.161.653-.788 4.098-2.669 7.655-4.181 3.556-1.511 6.332-2.882 6.168-3.046-.164-.164-2.736.417-5.716 1.29-4.471 1.311-6.475 1.393-11.464.471-6.256-1.157-74.94-21.526-93.298-27.669-11.961-4.002-10.938-3.792-11.788-2.417M212 148c-.825.533-1.05.969-.5.969s1.675-.436 2.5-.969c.825-.533 1.05-.969.5-.969s-1.675.436-2.5.969m-198.336 4.578c-4.327 9.075-4.125 27.508.453 41.271 1.801 5.414 2.606 6.555 5.465 7.75 4.993 2.086 5.317 1.865 4.179-2.849-1.735-7.189-1.167-29.179.995-38.477l1.912-8.228-5.238-1.522c-2.881-.838-5.423-1.523-5.649-1.523-.226 0-1.178 1.61-2.117 3.578m21.006 3.172c-3.213 5.379-4.459 42.954-1.613 48.624 1.284 2.557 4.076 3.857 25.321 11.789 13.133 4.903 23.998 8.784 24.144 8.626.145-.159-.561-3.439-1.571-7.289-1.221-4.654-1.855-10.706-1.893-18.062-.054-10.351.638-14.617 4.621-28.473.351-1.219-4.464-3.016-23.445-8.75-25.789-7.789-24.906-7.566-25.564-6.465M239.158 168c0 1.375.227 1.938.504 1.25.278-.687.278-1.812 0-2.5-.277-.687-.504-.125-.504 1.25m-143.637 7.25c-4.567 13.722-5.887 33.511-3.079 46.134 1.669 7.503 3.176 9.616 6.855 9.616 1.191 0 1.102-1.285-.539-7.75-1.399-5.514-1.991-11.357-2.053-20.25-.076-11.003.225-13.398 2.511-19.998 1.882-5.43 2.279-7.702 1.441-8.235-1.821-1.159-4.679-.89-5.136.483m16.037 3.656c-.293.474-1.435 4.627-2.538 9.228-2.37 9.883-2.603 23.782-.585 34.866 2.068 11.365 2.729 12.527 8.174 14.382 2.611.89 5.073 1.618 5.471 1.618.398 0 .039-2.137-.798-4.75-.937-2.926-1.709-10.319-2.009-19.25-.418-12.444-.186-15.762 1.637-23.4 1.168-4.895 1.942-9.081 1.721-9.303-1.244-1.243-10.624-4.117-11.073-3.391M244 181.954c-10.338 4.239-54.453 25.906-54.788 26.909-.199.599 4.059-.89 9.463-3.308 34.802-15.578 51.834-23.581 52.14-24.5.502-1.505-1.64-1.223-6.815.899m-119.851 4.157c-4.87 12.832-4.582 45.119.461 51.59 1.274 1.635 1.321 1.571.517-.701-3.458-9.769-3.891-37.37-.746-47.453 1.582-5.071 1.402-7.74-.232-3.436m27.865 38.49c-12.687 5.687-19.814 9.932-18.643 11.104.342.341 20.477-8.63 30.83-13.737 2.585-1.275 4.471-2.69 4.191-3.143-.758-1.226-.746-1.231-16.378 5.776m-24.555 11.466c-1.166 1.886.343 2.185 2.699.535l2.287-1.602h-2.163c-1.19 0-2.461.48-2.823 1.067"/></svg>