<svg xmlns="http://www.w3.org/2000/svg" width="256" height="256"><path fill="#1976D2" fill-opacity=".016" fill-rule="evenodd" d="M0 128.004v128.004l128.25-.254 128.25-.254.254-127.75L257.008 0H0v128.004m.485.496c0 70.4.119 99.053.265 63.672.146-35.38.146-92.98 0-128C.604 29.153.485 58.1.485 128.5"/><path fill="#1976D2" fill-opacity=".438" fill-rule="evenodd" d="M125 1.618c-1.925.643-13.4 6.892-25.5 13.888-12.1 6.995-31 17.91-42 24.256-36.866 21.267-36.717 21.166-39.417 26.614l-2.417 4.876.151 56.457c.095 35.819.534 57.882 1.201 60.358.578 2.145 2.048 5.022 3.266 6.391 2.463 2.768 97.986 58.053 104.05 60.22 2.724.973 4.808 1.101 7.203.439 3.066-.846 96.107-53.696 102.83-58.409 1.576-1.106 3.704-3.855 4.728-6.109 1.745-3.842 1.862-7.667 1.877-61.099.012-38.661-.339-58.283-1.09-60.988-1.527-5.498-5.472-8.808-20.872-17.512-7.299-4.125-14.899-8.458-16.89-9.629-1.991-1.17-6.32-3.686-9.62-5.59-3.3-1.904-17.337-10.052-31.194-18.107C132.744 1.071 130.117-.091 125 1.618"/><path fill="#1976D2" fill-opacity=".348" fill-rule="evenodd" d="M124 3.729c-.825.314-14.775 8.24-31 17.613a27994.904 27994.904 0 0 1-48 27.667c-24.211 13.907-22.763 12.89-25.051 17.605-1.935 3.99-1.988 5.9-1.722 63.177.269 58.108.307 59.109 2.361 61.886 2.444 3.304 5.179 5.013 40.927 25.559 14.842 8.53 35.031 20.137 44.865 25.794 14.444 8.308 18.68 10.302 22.04 10.377 4.298.096 10.693-3.335 66.08-35.457 8.8-5.103 20.5-11.82 26-14.927 14.336-8.098 14.357-8.114 16.558-12.652 1.946-4.01 1.995-5.835 1.723-63-.271-56.79-.352-58.988-2.276-62.171-1.553-2.569-7.427-6.426-26.5-17.402-13.478-7.755-35.305-20.4-48.505-28.099C148.3 12 136.052 5.093 134.282 4.35c-3.29-1.38-7.604-1.641-10.282-.621"/><path fill="#1976D2" fill-opacity=".88" fill-rule="evenodd" d="M100 51.156c-3.025 1.668-8.65 4.922-12.5 7.232l-7 4.198-.257 65.026-.257 65.026 2.257 2.098c3.854 3.583 22.093 13.597 24.764 13.597 2.947 0 44.64-23.607 47.221-26.737 1.453-1.763 1.731-4.333 1.75-16.191.019-12.402-.198-14.294-1.807-15.75-2.1-1.9-4.465-2.103-7.237-.62-1.752.938-1.934 2.199-1.934 13.415v12.379l-4.25 2.401c-2.338 1.32-10.624 6.084-18.413 10.585-7.79 4.502-14.667 8.185-15.283 8.185-.615 0-4.474-1.913-8.576-4.25l-7.457-4.25-.007-59-.007-59 8.746-4.986C112.945 56.994 115.149 54.149 111 50c-2.648-2.648-4.443-2.459-11 1.156m26.123 9.749c-12.308 7.122-22.778 13.35-23.267 13.839-.669.669-1.145 58-.866 104.435.013 2.24 2.703 4.821 5.024 4.821 2.243 0 23.955-12.454 25.736-14.762.948-1.229 1.25-10.481 1.25-38.27v-36.65l4.852-2.641c2.668-1.452 5.143-2.349 5.5-1.992.356.357.648 7.073.648 14.925 0 13.619.102 14.348 2.223 15.833 2.915 2.042 3.961 1.966 6.588-.482 2.116-1.971 2.189-2.729 2.189-22.845 0-18.887-.169-20.959-1.829-22.461-1.006-.91-2.781-1.655-3.946-1.655-2.5 0-23.925 12.238-25.84 14.76-1.038 1.367-1.328 9.594-1.353 38.331L123 162.682l-5 2.721-5 2.722.03-43.313.029-43.312 10.625-6c5.844-3.3 14.201-8.123 18.572-10.719l7.946-4.718 7.899 4.556L166 69.175v17.913c0 16.579.149 18.061 2 19.912 2.402 2.402 5.288 2.569 7.429.429 1.33-1.331 1.571-4.847 1.571-22.932V63.136l-2.832-2.017c-5.696-4.055-20.612-12.256-23.105-12.703-1.946-.349-7.95 2.658-24.94 12.489M168 137c-1.891 1.891-2 3.333-2 26.372v24.372l-10.25 5.915c-9.19 5.303-10.281 6.234-10.554 9.002-.648 6.583 4.77 7.895 12.531 3.036 2.075-1.3 6.698-4.076 10.273-6.169 3.575-2.094 7.063-4.505 7.75-5.359.931-1.156 1.25-8.476 1.25-28.705 0-25.036-.143-27.283-1.829-28.809-2.43-2.199-4.738-2.088-7.171.345"/></svg>