<svg xmlns="http://www.w3.org/2000/svg" width="256" height="256"><path fill="#1976D2" fill-opacity=".016" fill-rule="evenodd" d="M0 128.004v128.004l128.25-.254 128.25-.254.254-127.75L257.008 0H0zm.485.496c0 70.4.119 99.053.265 63.672.146-35.38.146-92.98 0-128C.604 29.153.485 58.1.485 128.5"/><path fill="#1976D2" fill-opacity=".163" fill-rule="evenodd" d="M110 .629C96.788 3.073 79.867 8.5 70.227 13.385 55.037 21.082 36.31 36.747 25.856 50.5 15.439 64.204 7.706 80.682 2.795 99.639.783 107.407.5 110.904.5 128s.283 20.593 2.295 28.361c6.815 26.308 17.518 45.173 35.937 63.341 12.659 12.487 28.066 22.324 44.387 28.342 17.453 6.435 23.599 7.456 44.881 7.456 16.993 0 20.617-.29 28.191-2.253 18.13-4.701 29.191-9.577 43.619-19.228 20.625-13.795 38.565-36.009 47.267-58.527 3.467-8.971 7.923-25.25 7.923-28.945 0-1.336.45-2.707 1-3.047.599-.37 1-7.03 1-16.618 0-10.412-.349-15.784-1-15.382-.567.35-1-.485-1-1.928 0-3.799-4.409-19.972-7.923-29.064-8.702-22.518-26.642-44.732-47.267-58.527-10.911-7.299-16.292-10.103-26.869-14.003C156.429 1.89 149.948.739 130.5.442c-9.9-.151-19.125-.067-20.5.187m6.641 7.081c-1.688.435-1.793 1.179-1.149 8.134.389 4.211.877 7.833 1.084 8.049.207.215 1.018-.142 1.804-.794s2.513-.913 3.838-.581c1.585.398 3.201-.037 4.727-1.272 2.18-1.766 2.238-2.098.971-5.602-1.035-2.861-1.079-4.154-.19-5.576.636-1.019.883-2.126.548-2.46-.691-.692-8.826-.62-11.633.102m21.462 6.622c-1.689 9.696-1.874 9.321 4.474 9.069 6.843-.272 7.78-.928 2.524-1.769-2.765-.442-4.161-1.247-4.608-2.656-.737-2.321.261-7.884 1.745-9.726.741-.92.473-1.25-1.013-1.25-1.698 0-2.196 1.01-3.122 6.332m-34.694-3.082c.353 1.238.91 4.318 1.238 6.847.483 3.731.28 4.717-1.078 5.238-4.042 1.551-8.691-5.224-7.076-10.313.678-2.137-.128-2.54-2.313-1.155-1.086.689-1.051 1.867.197 6.647C95.711 23.62 99 29.218 99 26.381c0-.576 1.365-1.048 3.033-1.048 4.195 0 5.448-1.632 5.059-6.595-.182-2.331-.342-5.476-.355-6.988-.018-2.063-.517-2.75-1.997-2.75-1.57 0-1.842.46-1.331 2.25m15.251-.509c-1.056 1.709 1.12 3.412 3.949 3.089 4.036-.461 3.834-3.238-.265-3.636-1.736-.169-3.394.078-3.684.547m38.888 8.49c-2.254 7.339-2.576 10.131-.986 8.54.309-.309 1.829-3.957 3.377-8.107 2.219-5.949 2.529-7.654 1.463-8.063-.962-.369-2.074 1.832-3.854 7.63m-38.364-1.481c.242 2.111.917 2.82 2.902 3.051 1.422.165 3.141-.37 3.82-1.188 1.027-1.238.727-1.752-1.786-3.051-4.279-2.213-5.299-1.967-4.936 1.188m-41.934.509C74.912 19.433 73 20.707 73 21.09s1.554 3.782 3.452 7.553l3.453 6.857.054-4c.045-3.328.535-4.274 2.916-5.628 2.004-1.14 3.016-2.639 3.375-5 .281-1.855.314-3.709.072-4.122-.782-1.333-4.717-.679-9.072 1.509m92.731.491c-3.905 3.52-5.08 9.379-2.461 12.273 2.263 2.5 8.646 2.69 10.608.316 1.236-1.497 1.08-1.606-1.577-1.101-4.314.82-7.551-.714-7.551-3.578 0-2.713 3.499-7.66 5.418-7.66 1.749 0 4.582 3.294 4.582 5.329 0 .919.45 1.671 1 1.671s1-.863 1-1.918.249-2.568.554-3.361c.363-.946-.635-2.006-2.902-3.082-4.576-2.171-5.105-2.104-8.671 1.111m-91.743 1.412c-1.787 1.787-1.523 3.613.621 4.293 2.904.922 5.285-.442 4.944-2.832-.349-2.444-3.702-3.324-5.565-1.461m30.395 12.33C98.557 34.583 92.517 36.73 83 41.605 43.221 61.98 23.317 107.192 34.619 151.5c2.056 8.061 9.336 23.282 14.794 30.93 4.379 6.137 19.884 21.57 21.67 21.57 2.358 0 .388 1.923-5.177 5.053C60.185 212.271 52 219.822 52 221.882c0 .509 2.306.05 5.124-1.021 2.818-1.071 5.323-1.747 5.568-1.503.244.245-.262 2.821-1.124 5.725-2.63 8.855-2.111 9.329 3.771 3.447 2.937-2.936 8.224-6.789 11.75-8.562 18.794-9.45 27.428-18.803 12.424-13.461-4.118 1.467-5.986.876-5.028-1.59.754-1.939 11.013-8.318 16.515-10.269 6.574-2.331 20.281-4.648 27.5-4.648 12.785 0 29.528 4.379 37.605 9.835 9.093 6.143 9.041 9.252-.105 6.244-4.955-1.629-5.536-1.651-5.866-.222-.525 2.275 4.223 5.869 16.037 12.14 6.886 3.655 12.118 7.29 15.694 10.906l5.366 5.423-.732-4.413c-.402-2.427-1.157-5.224-1.678-6.215-2.062-3.925-.703-4.709 4.872-2.812l5.192 1.768-1.065-2.077c-2.081-4.06-6.418-7.818-13.57-11.761-6.474-3.569-8.928-5.816-6.351-5.816.494 0 4.247-3.127 8.34-6.95 12.422-11.6 21.916-27.228 26.803-44.117 2.739-9.464 3.761-30.654 2.005-41.541-4.969-30.801-25.545-57.588-54.52-70.975-12.138-5.608-21.334-7.593-37.027-7.993-9.525-.242-16.195.099-20.867 1.068m26.59 6.08c-.11 1.335.244 2.428.788 2.428 1.171 0 1.34-3.665.201-4.369-.433-.268-.878.606-.989 1.941M121.5 39c-.995 1.1-1.515 2-1.155 2 .36 0 1.555-.9 2.655-2 1.1-1.1 1.62-2 1.155-2-.465 0-1.66.9-2.655 2m10.5 1c0 .55.45 1 1 1s1-.45 1-1-.45-1-1-1-1 .45-1 1m13.204 1.955c1.379 2.209 2.351 1.934 1.451-.412-.326-.849-1.06-1.543-1.632-1.543-.658 0-.592.717.181 1.955M37.655 47.829C36.745 48.835 36 49.927 36 50.257c0 .33 1.665 3.395 3.701 6.812l3.7 6.212 1.522-2.39c.837-1.315 2.95-3.78 4.696-5.477l3.176-3.086-6.417-3.164C42.849 47.424 39.815 46 39.636 46c-.179 0-1.071.823-1.981 1.829M95 46.646c0 .483 2.836 1.691 6.301 2.684 3.466.992 6.807 2.613 7.423 3.6 1.212 1.94 5.276 3.463 5.276 1.976 0-.498-.623-.906-1.385-.906s-2.066-1.039-2.897-2.308c-.899-1.372-3.278-2.757-5.865-3.415-2.394-.609-5.366-1.423-6.603-1.809-1.237-.386-2.25-.306-2.25.178m115.314 1.304c-5.683 3.465-6.829 8.177-3.057 12.562 2.053 2.388 2.526 2.517 5.25 1.437 1.998-.793 2.495-1.338 1.493-1.641-4.079-1.235-6-2.805-6-4.904 0-2.477 4.272-6.404 6.966-6.404 2.11 0 4.52 4.291 3.664 6.523-.852 2.22.35 4.116 1.48 2.334 1.763-2.783 1.002-8.665-1.333-10.3-2.909-2.038-4.605-1.96-8.463.393M154.5 49.666c-26.47 6.922-24.418 6.602-30.84 4.81-3.212-.896-6.07-1.4-6.351-1.118-.281.281 2.347 1.359 5.84 2.396 6.228 1.848 6.496 1.848 13.824-.015 5.043-1.282 7.59-1.549 7.833-.82.534 1.6 2.194 1.312 2.194-.38 0-1.645 6.39-3.682 12.233-3.9 2.157-.08 3.96-.727 4.273-1.532.298-.766.418-1.483.268-1.594-.151-.11-4.324.859-9.274 2.153M41 52.345c0 .74.911 2.169 2.024 3.176 1.527 1.383 2.306 1.549 3.176.679.87-.87.704-1.649-.679-3.176C43.432 50.715 41 50.35 41 52.345m72 5.407c0 1.198 6.614 5.673 9.949 6.732 5.165 1.639 12.078.647 17.631-2.53 5.156-2.95 7.467-4.954 5.711-4.954-.455 0-2.414 1.078-4.353 2.396-3.802 2.584-9.899 4.589-13.977 4.598-2.554.006-7.116-2.01-12.211-5.396-1.513-1.006-2.75-1.386-2.75-.846m49.184 1.602c1.003 1.882.953 1.989-.403.87-1.266-1.043-1.647-1.015-2.095.153-.749 1.952.141 2.623 3.481 2.623 3.634 0 3.858-3.017.345-4.646-2.335-1.083-2.408-1.028-1.328 1m-133.752.862c-.566 1.781.102 2.931 3.404 5.861 2.26 2.005 3.858 3.896 3.552 4.201-.306.306-2.991-.281-5.967-1.305-5.322-1.831-5.427-1.83-6.451.083C22.032 70.808 22.273 71 25.4 71c1.908 0 4.684.461 6.167 1.025 3.162 1.203 6.008.524 6.835-1.629.545-1.422-6.957-12.207-8.585-12.34-.375-.031-.999.941-1.385 2.16m191.645 7.373c-3.589 3.02-4.165 7.907-1.327 11.252 1.507 1.776 2.344 1.948 6.029 1.24 2.353-.453 5.165-1.626 6.25-2.607 2.077-1.88 2.68-6.918.955-7.984-.559-.346-.727-1.097-.372-1.671.912-1.475-1.559-2.786-5.285-2.804-1.972-.009-4.338.965-6.25 2.574m4.231.475c-1.205.456-2.952 1.989-3.882 3.408-1.594 2.433-1.588 2.691.097 4.554 2.223 2.456 5.25 2.488 8.37.09 4.354-3.348.567-9.998-4.585-8.052M120 76.117c-10.483 7.567-25.707 13.375-40.25 15.358-5.02.684-5.297 1.131-3.844 6.198.499 1.739 1.443 11.411 2.099 21.494 1.117 17.168 1.06 19.127-.902 30.833-3.371 20.117-2.938 23.148 4.386 30.71l5.164 5.331 6.651-2.503c12.492-4.702 20.214-6.024 35.196-6.024 14.9 0 22.714 1.325 34.934 5.925l6.389 2.405 4.115-3.523c2.263-1.937 4.852-4.939 5.752-6.671 2.085-4.008 2.029-15.401-.125-25.465-.868-4.058-1.563-12.074-1.562-18 .004-11.889 1.691-32.25 2.945-35.548 1.164-3.062-.946-4.587-7.897-5.706-13.035-2.099-24.671-6.63-35.693-13.897-4.199-2.769-8.585-5.001-9.747-4.96-1.161.04-4.586 1.859-7.611 4.043m2 2.094C111.431 85.973 95.642 92.24 82.5 93.89l-5 .627 10.286 7.805 10.285 7.805-2.497 2.967c-2.529 3.006-4.614 8.752-4.501 12.406.034 1.1.632-.118 1.329-2.708 1.57-5.832 6.065-12.465 9.733-14.362 5.557-2.874 15.229-1.069 17.785 3.32.971 1.667 1.021 1.667 1.05 0 .016-.963.48-1.75 1.03-1.75s1 1.575 1 3.5c0 3.421.091 3.5 4.032 3.5 5.302 0 10.404 2.21 12.505 5.416 1.775 2.709 4.799 3.624 3.856 1.167-.367-.957 5.373-5.913 17.661-15.25 14.759-11.215 17.754-13.888 15.825-14.124-14.674-1.796-28.368-6.886-40.047-14.884-4.276-2.929-8.125-5.287-8.554-5.239-.428.047-3.253 1.903-6.278 4.125m-102.106.978c-2.902.982-4.902 4.51-4.879 8.608.025 4.272 1.384 5.438 6.843 5.868 6.767.534 9.186-1.671 8.905-8.12-.129-2.962-.719-4.712-1.729-5.125-4.095-1.677-6.759-2.036-9.14-1.231m-.439 4.266c-2.978 2.977-2.441 4.704 2.14 6.889 5.984 2.853 9.693-1.034 5.622-5.893-2.86-3.413-5.063-3.695-7.762-.996m212.434 3.373-7.61 2.672 1.854 5.41c2.465 7.192 3.137 7.599 2.716 1.646-.381-5.401-.555-5.213 8.401-9.14 2.063-.904 3.75-2.043 3.75-2.53 0-1.202-.394-1.118-9.111 1.942m-98.346.103c-.317.512-.193 1.167.274 1.456.467.289.85-.13.85-.931 0-1.686-.316-1.833-1.124-.525m-81.412 4.584c-.689 1.905-1.946 4.157-2.793 5.004-.99.99-1.318 2.423-.92 4.011.523 2.082 1.214 2.47 4.401 2.47 6.665 0 8.067-4.132 3.624-10.68-1.407-2.072-2.67-3.881-2.808-4.019-.138-.138-.815 1.308-1.504 3.214m72.306-2.414c-.539.872-.097 1.043 1.568.608 1.275-.334 3.198-.136 4.272.439 1.517.812 1.855.745 1.512-.301-.573-1.742-6.372-2.33-7.352-.746m59.677 1.686c-1.28 2.391-2.998 18.29-3.729 34.513-.49 10.856-.222 15.351 1.51 25.311 3.652 21.014 2.652 28.319-4.707 34.385-3.021 2.491-3.291 3.027-1.81 3.596 2.285.877 7.267-3.78 9.726-9.092 2.373-5.126 2.348-9.353-.139-23.5-2.87-16.325-2.669-37.556.586-61.75.728-5.406.236-6.589-1.437-3.463M118 94c0 .55.702 1 1.559 1s1.281-.45.941-1c-.34-.55-1.041-1-1.559-1s-.941.45-.941 1m4.454.074c-.983 1.59 2.539 4.926 5.201 4.926 2.622 0 6.741-3.551 5.829-5.025-.343-.555-1.61-.283-3.036.651-2.246 1.472-2.65 1.472-4.896 0-1.617-1.06-2.668-1.247-3.098-.552M135 94c0 .55.423 1 .941 1s1.219-.45 1.559-1c.34-.55-.084-1-.941-1S135 93.45 135 94m-41.376 2.986c-2.824 1.806-2.839 1.863-.82 3.123 1.468.917 1.81 1.743 1.198 2.888-.71 1.326-.266 1.603 2.57 1.603 2.816 0 3.428-.375 3.428-2.1 0-1.155.54-2.64 1.2-3.3.933-.933.815-1.2-.531-1.2-.953 0-1.991-.675-2.307-1.5-.713-1.857-1.145-1.813-4.738.486m65.376.049c-2.198 1.749-2.314 2.14-.964 3.228.845.68 1.397 1.912 1.225 2.737-.222 1.071.553 1.5 2.714 1.5 2.383 0 3.025-.435 3.025-2.05 0-1.128.54-2.59 1.2-3.25.933-.933.815-1.2-.531-1.2-.953 0-1.991-.675-2.307-1.5-.746-1.943-1.341-1.87-4.362.535M121.2 99.2c-1.888 1.888-1.403 2.979.8 1.8 1.1-.589 2-1.505 2-2.035 0-1.325-1.354-1.211-2.8.235m11.326-.241c-.359.58.07 1.333.954 1.672 2.2.844 2.884-.084 1.133-1.537-.985-.818-1.639-.86-2.087-.135m-119.117 2.013c-2.237.905-3.907 4.375-4.827 10.028l-.57 3.5 7.482.221c7.214.212 7.505.131 8.106-2.263.343-1.366.428-3.817.188-5.446-.239-1.63.049-3.149.639-3.376 1.207-.464-5.654-3.671-7.645-3.573-.705.035-2.223.444-3.373.909M127 102.5c0 1.375.45 2.5 1 2.5s1-1.125 1-2.5-.45-2.5-1-2.5-1 1.125-1 2.5M13 105c-1.1 1.1-2 2.364-2 2.809 0 2.07 2.879 4.07 6.75 4.688 4.229.675 4.25.664 4.25-2.409 0-3.277-2.957-7.088-5.5-7.088-.825 0-2.4.9-3.5 2m228-.927a996.767 996.767 0 0 1-7.817 1.448c-3.597.645-3.553.352-1.456 9.729.697 3.119.747 3.05 1.25-1.731.566-5.396-.028-4.94 9.773-7.493 2.338-.608 4.25-1.538 4.25-2.066 0-.528-.338-.911-.75-.85-.412.06-2.775.493-5.25.963m-193.926.804c-1.334.373-2.609 1.229-2.833 1.901-.239.715.174 1 .991.686.77-.295 2.582.077 4.027.826 2.576 1.337 2.59 1.395.684 3.027-2.615 2.239-2.448 3.354.752 5.031 4.473 2.344 7.627.534 9.455-5.426 1.44-4.692 1.425-5.079-.239-5.97-1.994-1.067-9.137-1.109-12.837-.075m56.125 4.795c-1.815.895-2.94 1.933-2.5 2.307 1.532 1.301 17.808 13.606 18.819 14.227.647.397.882-.805.645-3.29-.32-3.361-.713-3.916-2.768-3.916-1.317 0-2.395-.45-2.395-1s1.659-1 3.687-1h3.687l-2.937-3.089c-5.651-5.944-10.31-7.16-16.238-4.239M.407 128c0 9.075.152 12.787.337 8.25.185-4.537.185-11.963 0-16.5-.185-4.537-.337-.825-.337 8.25m197.843-13.434c-3.87 2.32-4.25 2.906-4.25 6.558 0 3.433-.264 3.927-1.832 3.429-3.616-1.147-5.485 2.711-5.851 12.079-.309 7.883-.192 8.528 1.423 7.839 3.207-1.367 17.193-3.138 18.046-2.285.461.461 2.626.99 4.81 1.175 2.184.185 4.909.839 6.056 1.453 2.824 1.511 3.204.845 2.34-4.096-.405-2.32-.664-6.842-.574-10.049.148-5.281-.091-6.012-2.532-7.75-1.482-1.055-3.413-1.919-4.29-1.919-.896 0-1.596-.826-1.596-1.881 0-1.477-5.735-7.153-7.183-7.11-.174.006-2.229 1.156-4.567 2.557M42 119c0 .55 1.098 1 2.441 1 1.343 0 2.719-.45 3.059-1 .361-.583-.656-1-2.441-1-1.682 0-3.059.45-3.059 1m13 0c0 .55 1.377 1 3.059 1 1.785 0 2.802-.417 2.441-1-.34-.55-1.716-1-3.059-1-1.343 0-2.441.45-2.441 1m-2 5v5h-5.5c-3.025 0-5.5.45-5.5 1s2.475 1 5.5 1c5.444 0 5.5.03 5.5 3 0 1.803-.521 3-1.307 3-1.042 0-1.114 1.427-.352 7.052.525 3.879 1.288 6.691 1.696 6.25 1.346-1.457 2.829-12.754 1.761-13.42-.544-.34-.948-4.503-.896-9.25.051-4.748-.131-8.632-.404-8.632-.274 0-.498 2.25-.498 5m72-3c0 2.467 1.542 2.598 2.95.25 1-1.667 1.1-1.667 2.1 0 .577.963 1.702 1.75 2.5 1.75 1.657 0 1.942 1.578.45 2.5-.55.34-1 1.522-1 2.626 0 1.547-.455 1.864-1.98 1.38-1.089-.345-2.736-.205-3.66.312-1.536.86-1.512 1.03.274 1.986 1.609.861 2.868.348 7.146-2.915 4.572-3.486 5.051-4.186 4.01-5.853-1.567-2.51-5.097-4.036-9.337-4.036-2.786 0-3.453.386-3.453 2m-82.699.634c1.124 1.124 7.699 1.457 7.699.39 0-.563-1.875-1.024-4.167-1.024-2.291 0-3.881.285-3.532.634M55 122c0 .55 1.8 1 4 1s4-.45 4-1-1.8-1-4-1-4 .45-4 1m-45.25 1.077c-1.407.822-1.75 2.417-1.75 8.128 0 6.82.073 7.039 1.829 5.45 1.222-1.106 3.626-1.66 7.25-1.67 2.981-.009 6.096-.452 6.921-.985 1.184-.765.964-.973-1.05-.985-5.437-.032-6.708-5.107-1.956-7.812 3.75-2.134 3.887-3.475.256-2.51-3.276.87-6.196.87-8.25-.002-.825-.351-2.287-.177-3.25.386m141-.415c.688.278 1.813.278 2.5 0 .688-.277.125-.504-1.25-.504s-1.937.227-1.25.504M45.5 125c4.003.717 3.962.949-.25 1.416-4.025.447-3.691 1.584.467 1.584 3.209 0 4.158-.415 4.573-2 .471-1.802.062-1.986-4.134-1.858l-4.656.142zm10 0c.34.55 2.391 1 4.559 1S64 125.55 64 125s-2.052-1-4.559-1c-2.785 0-4.319.389-3.941 1m105.774.584c2.858 1.551 4.738 1.194 4.711-.893-.011-.799-.298-.746-.873.162-.659 1.039-1.336 1.097-2.919.25-1.134-.607-2.429-1.085-2.877-1.063-.449.022.432.717 1.958 1.544m70.805 6.166c.079 6.739.704 6.458 2.369-1.066.957-4.323 3.912-3.153 4.616 1.826l.564 3.99.769-3c1.459-5.687 1.438-5.659 3.495-4.558 1.583.848 1.823 1.762 1.363 5.196-.42 3.132-.256 3.981.662 3.413.731-.452 1.115-2.484.957-5.064-.153-2.474.296-4.987 1.053-5.899 1.187-1.43.46-1.588-7.305-1.588H232zm-221.614-4.693c-.359.581-.377 2.156-.04 3.5.444 1.769 1.297 2.443 3.094 2.443 2.695 0 3.204-1.781 1.446-5.066-1.127-2.105-3.46-2.56-4.5-.877M125.5 127c-.34.55-.141 1 .441 1s1.059-.45 1.059-1-.198-1-.441-1-.719.45-1.059 1m-70.225 2c.128 1.7.867 2 4.938 2 2.894 0 4.787-.447 4.787-1.131 0-.733-1.226-.932-3.482-.566-1.915.311-3.723.174-4.019-.304-.295-.478.934-1.052 2.732-1.274 2.901-.359 2.798-.423-.919-.565-3.619-.138-4.167.112-4.037 1.84m82.69 1.25c-1.104 1.787-2.28 4.298-2.614 5.58-.334 1.281-1.563 2.743-2.729 3.249-1.928.835-1.941.895-.147.661 1.086-.142 2.476-1.263 3.089-2.492.612-1.229 1.808-3.025 2.657-3.991 1.66-1.891 3.288-6.257 2.332-6.257-.32 0-1.485 1.463-2.588 3.25M42 133c0 .55 2.025 1 4.5 1s4.5-.45 4.5-1-2.025-1-4.5-1-4.5.45-4.5 1m13 0c0 .55 2.025 1 4.5 1s4.5-.45 4.5-1-2.025-1-4.5-1-4.5.45-4.5 1m66 5.379c0 7.012.126 6.878-9 9.574l-3.5 1.034 4.112-.38c2.261-.209 5.299-1.157 6.75-2.108 2.395-1.57 2.638-2.318 2.638-8.114 0-3.512-.225-6.385-.5-6.385s-.5 2.87-.5 6.379m-23.717 1.123c.832 1.652 2.541 3.902 3.799 5 1.885 1.646 1.781 1.294-.592-2.002-4.05-5.626-4.957-6.474-3.207-2.998M15 143.709c-4.879 1.795-6.7 8.419-3.549 12.917 1.262 1.803 2.066 1.979 6.185 1.353 5.7-.865 8.849-4.028 7.901-7.935-.34-1.399-.667-3.219-.728-4.044-.062-.825-.606-1.831-1.21-2.235-1.258-.841-6.373-.874-8.599-.056m216.048 1.051c-2.748 2.225-3.788 8.955-1.795 11.617 1.237 1.652 1.695 1.716 3.826.537 1.332-.736 2.759-1.243 3.171-1.126.412.116.75-.48.75-1.326 0-1.081-.817-1.452-2.75-1.25-2.255.236-2.812-.152-3.095-2.156-.744-5.268 6.19-6.785 9.647-2.111 2.247 3.04 2.103 5.494-.379 6.446-.783.301-1.409 1.573-1.391 2.828.031 2.233.083 2.222 2.515-.543 1.998-2.271 2.451-3.781 2.312-7.707-.158-4.46-.432-4.973-3.165-5.926-4.31-1.502-7.167-1.29-9.646.717m-217.393 3.069c-2.354 2.601-2.052 4.865.907 6.804 2.382 1.56 2.804 1.563 6 .039 3.652-1.742 4.304-3.948 2.046-6.922-1.74-2.292-6.848-2.247-8.953.079m107.424 5.754c.048 1.165.285 1.402.604.605.289-.722.253-1.585-.079-1.917-.332-.332-.568.258-.525 1.312m-4.329 5.079c.688.278 1.813.278 2.5 0 .688-.277.125-.504-1.25-.504s-1.937.227-1.25.504m34.063 5.021c.721.289 1.584.253 1.916-.079.332-.332-.258-.568-1.312-.525-1.165.048-1.402.285-.604.604m72.227 4.719c-2.777 6.842-2.146 9.639.855 3.785 3.273-6.388 7.432-4.536 4.633 2.063-.418.985-.311 1.75.244 1.75.542 0 1.545-1.35 2.228-3 1.341-3.237 1.743-3.448 3.932-2.063 1.236.782 1.212 1.468-.169 4.985-.881 2.243-1.165 4.078-.632 4.078 1.015 0 3.163-4.638 4.222-9.117.569-2.408.201-2.779-4.617-4.653a878.747 878.747 0 0 1-6.848-2.687c-1.244-.502-2.122.606-3.848 4.859m-198.647-2.82c.334.87.607 1.77.607 2 0 .23.884.418 1.965.418 1.08 0 2.491.984 3.134 2.186 1.013 1.893.81 2.496-1.52 4.5-3.03 2.606-5.264 2.869-7.829.922-2.021-1.534-2.29-4.668-.55-6.408.877-.877.902-1.498.093-2.307-.809-.809-1.585-.378-2.883 1.604-1.612 2.46-1.643 3.096-.34 6.857 1.428 4.12 1.466 4.144 5.934 3.811 7.932-.591 11.718-4.889 8.556-9.714-1.031-1.574-1.196-2.451-.461-2.451.817 0 .788-.431-.099-1.5-1.756-2.115-7.423-2.045-6.607.082m49.91 17.02c.877 1.705 2.719 3.838 4.094 4.738 4.254 2.788 3.487.369-1.217-3.84-4.459-3.989-4.467-3.992-2.877-.898m37.89-.813c-1.819.19-3.559 1.002-3.867 1.804-.403 1.05-.913 1.165-1.822.41-.904-.75-3.352-.304-8.633 1.575-9.043 3.217-10.489 4.4-8.933 7.305 1.118 2.09 3.1 2.745 4.392 1.453.563-.562 9.758-4.07 11.193-4.27.263-.036.702-.122.977-.191l1.5-.375c.55-.137 1.417-.306 1.927-.375.509-.069 1.132-.912 1.384-1.875.421-1.611.466-1.605.573.067.086 1.352.633 1.654 2.137 1.176 1.112-.353 4.034-.755 6.493-.894 5.363-.302 5.449-.371 4.789-3.81-.551-2.868-1.822-3.078-12.11-2M126 183.997c0 3.125 1.662 3.941 3.758 1.845.876-.876 1.562-.821 2.826.228 1.929 1.601 8.416 2.274 8.416.873 0-1.53 2.735-1.077 3.362.557.316.825 1.292 1.5 2.169 1.5 1.717 0 9.579 2.302 15.844 4.638 2.131.795 3.983 1.314 4.114 1.154.132-.161.788-1.343 1.457-2.628 1.284-2.467 1.076-3.144-1.104-3.585-.738-.15-2.617-.794-4.176-1.432-1.559-.639-3.246-.907-3.75-.595-.504.311-.916.089-.916-.493 0-1.654-2.139-1.244-3.608.691-1.236 1.629-1.331 1.601-1.36-.393-.049-3.293-4.548-4.646-5.343-1.607-.353 1.353-.483 1.254-.573-.438-.071-1.335-.798-2.222-1.866-2.275-.963-.048-5.687-.302-10.5-.565l-8.75-.479zm-50.995 11.642c-.006 1.464 3.665 6.02 4.319 5.361.273-.275-.586-1.85-1.909-3.5s-2.407-2.487-2.41-1.861m27.694.596-2.801.966 3.979 1.968c2.189 1.083 7.447 4.975 11.685 8.65 13.527 11.728 11.615 11.142 18.055 5.532 8.742-7.615 16.613-13.517 19.883-14.908l3-1.276-2.824-.711c-3.928-.988-5.898.14-16.334 9.35-9.114 8.044-9.15 8.063-10.993 6.017-2.641-2.932-16.472-14.334-18.849-15.539-1.311-.665-2.965-.681-4.801-.049m75.982 2.128c-.95 1.451-1.322 2.637-.826 2.637 1.381 0 3.382-2.788 2.944-4.103-.215-.644-1.167.016-2.118 1.466m-83.074.464c-.328.53.088 1.226.923 1.546 2.123.815 3.432 4.748 2.3 6.908-.514.98-2.739 3.089-4.945 4.687l-4.01 2.905 7.836 2.476c8.859 2.798 22.112 4.976 27.274 4.482l3.452-.331-9.169-8.009c-11.873-10.37-22.315-16.842-23.661-14.664M155 201.008c-4.95 2.524-23.942 17.471-25.593 20.143-1.592 2.575 22.641-1.673 31.835-5.581l3.742-1.59-3.992-3.606c-4.632-4.185-4.989-6.445-1.458-9.222 3.992-3.14 1.499-3.219-4.534-.144m-71.397 24.825c-.283.459.14.834.941.834.801 0 1.456-.375 1.456-.834 0-.458-.423-.833-.941-.833s-1.173.375-1.456.833M90.5 226c.34.55.816 1 1.059 1s.441-.45.441-1-.477-1-1.059-1-.781.45-.441 1m4.199-.25c-.231.412-.426 2.55-.433 4.75-.007 2.2.208 3.1.476 2 .269-1.1 1-2.331 1.624-2.735.813-.526.78-.739-.116-.75-.687-.008-1.25-.738-1.25-1.622 0-1.041.546-1.397 1.552-1.011.89.341 1.291.173.941-.393-.723-1.17-2.203-1.297-2.794-.239m5.301.219c0 .532.675.709 1.5.393.825-.317 1.5-.753 1.5-.969 0-.216-.675-.393-1.5-.393s-1.5.436-1.5.969M111.158 227c0 1.375.227 1.938.504 1.25.278-.687.278-1.812 0-2.5-.277-.687-.504-.125-.504 1.25m13.474-1.214c-.267.432.349.785 1.368.785 1.019 0 1.635-.353 1.368-.785-.268-.432-.883-.786-1.368-.786-.485 0-1.1.354-1.368.786m5.368.183c0 .532.675.709 1.5.393.825-.317 1.5-.753 1.5-.969 0-.216-.675-.393-1.5-.393s-1.5.436-1.5.969m5-.576c0 .216.698.661 1.552.989.89.341 1.291.173.941-.393-.587-.951-2.493-1.406-2.493-.596m5.402 3.85c.071 3.074.515 4.257 1.598 4.257 1.063 0 1.535-1.164 1.619-4l.119-4-.429 3.75c-.567 4.944-2.088 4.793-2.6-.257l-.405-4.008zm10.681-3.96c.23.156 1.317.943 2.417 1.75 1.85 1.357 1.897 1.336.628-.283-.755-.963-1.843-1.75-2.417-1.75-.574 0-.857.127-.628.283m18.52.55c-.283.459.14.834.941.834.801 0 1.456-.375 1.456-.834 0-.458-.423-.833-.941-.833s-1.173.375-1.456.833M117 227c0 .55.45 1 1 1s1-.45 1-1-.45-1-1-1-1 .45-1 1m39.252 3c.011 2.475.215 3.488.454 2.25.238-1.238.821-2.25 1.294-2.25.473 0 1.056 1.012 1.294 2.25.239 1.238.443.225.454-2.25.011-2.475-.186-3.713-.437-2.75-.252.963-.842 1.75-1.311 1.75s-1.059-.787-1.311-1.75c-.251-.963-.448.275-.437 2.75m-67.893-.077c.087 2.107.718 3.578 1.641 3.826 1.013.272 1.123.134.34-.426-.638-.456-1.376-2.178-1.641-3.826-.44-2.746-.469-2.71-.34.426m16.836-.423c.02 1.65.244 2.204.498 1.231.254-.973.237-2.323-.037-3-.274-.677-.481.119-.461 1.769m-5.116.083c.048 1.165.285 1.402.604.605.289-.722.253-1.585-.079-1.917-.332-.332-.568.258-.525 1.312M130 229c0 .55.477 1 1.059 1s.781-.45.441-1-.816-1-1.059-1-.441.45-.441 1m5 .031c0 .533.675.969 1.5.969s1.5-.177 1.5-.393c0-.216-.675-.652-1.5-.969-.825-.316-1.5-.139-1.5.393m34-.653c0 .207.787.995 1.75 1.75 1.586 1.243 1.621 1.208.378-.378-1.307-1.666-2.128-2.195-2.128-1.372m-18 1.591c0 .532.675.709 1.5.393.825-.317 1.5-.753 1.5-.969 0-.216-.675-.393-1.5-.393s-1.5.436-1.5.969M112 232c0 1.867.267 2.133 1.2 1.2.933-.933.933-1.467 0-2.4-.933-.933-1.2-.667-1.2 1.2m4.667-.333c-.367.366-.66 1.154-.652 1.75.009.595.459.408 1-.417.876-1.333 1.094-1.333 1.97 0 .843 1.284.987 1.248 1-.25.015-1.723-2.016-2.386-3.318-1.083M83 233.031c0 .533.675.969 1.5.969s1.5-.177 1.5-.393c0-.216-.675-.652-1.5-.969-.825-.316-1.5-.139-1.5.393m17 0c0 .533.675.969 1.5.969s1.5-.177 1.5-.393c0-.216-.675-.652-1.5-.969-.825-.316-1.5-.139-1.5.393m24 .183c0 .432.648.786 1.441.786s1.659-.354 1.927-.786c.267-.432-.382-.785-1.441-.785-1.06 0-1.927.353-1.927.785m6-.214c0 .55.477 1 1.059 1s.781-.45.441-1-.816-1-1.059-1-.441.45-.441 1m35 0c0 .55.477 1 1.059 1s.781-.45.441-1-.816-1-1.059-1-.441.45-.441 1m3.733.124c.679.684 1.486.991 1.793.683.308-.308-.247-.867-1.233-1.243-1.425-.542-1.54-.428-.56.56m-47.654 12.459c.048 1.165.285 1.402.604.605.289-.722.253-1.585-.079-1.917-.332-.332-.568.258-.525 1.312m10.731 1.918c.52 4.45-1.521 4.689-2.127.249l-.444-3.25.13 3.5c.089 2.386.608 3.5 1.631 3.5 1.687 0 2.693-5.207 1.279-6.621-.503-.503-.703.616-.469 2.622"/><path fill="#1976D2" fill-opacity=".667" fill-rule="evenodd" d="M112.456.944c-3.874.449-10.726 1.77-15.225 2.936-48.206 12.496-83.726 49.668-94.87 99.282-2.296 10.223-2.296 39.453 0 49.676 11.601 51.648 49.153 89.2 100.801 100.801 10.223 2.296 39.453 2.296 49.676 0 46.23-10.384 81.91-42.099 96.603-85.868 3.228-9.616 5.559-20.635 5.559-26.277 0-2.407.45-4.654 1-4.994.55-.34 1-4.668 1-9.618 0-5.745-.362-8.777-1-8.382-.61.377-1-1.134-1-3.876 0-14.537-9.221-40.216-20.562-57.26-18.381-27.626-48.557-47.947-81.482-54.873-8.701-1.83-30.771-2.673-40.5-1.547m6.392 5.787-4.652.371.525 8.199c.289 4.509.808 8.485 1.152 8.835 1.084 1.099 11.136-.717 12.717-2.297.83-.831 1.46-2.371 1.4-3.424-.061-1.053-.207-3.851-.325-6.217-.216-4.326-1.766-6.321-4.665-6.002-.825.09-3.593.331-6.152.535m19.836 1.019c-.239.412-.749 3.45-1.133 6.75-.385 3.3-.94 7.012-1.234 8.25-.503 2.121-.227 2.249 4.825 2.235 2.947-.009 5.978-.408 6.736-.889 2.049-1.297.406-3.096-2.829-3.096-3.452 0-4.39-2.634-3.027-8.5 1.261-5.423 1.247-5.5-.963-5.5-1.068 0-2.136.338-2.375.75m-34.825.918c-1.496.398-1.512.933-.189 6.002 1.563 5.984 1.258 8.33-1.082 8.33-2.096 0-4.533-3.854-5.249-8.302-.507-3.151-.973-3.749-2.725-3.496-2.313.333-2.415 2.088-.531 9.101 1.545 5.748 4.049 7.803 8.113 6.657 5.534-1.561 7.068-4.357 6.265-11.413-.905-7.945-.857-7.874-4.602-6.879m15.333 3.407c.197.591.684 1.041 1.083 1C120.674 13.034 121.9 13 123 13s2-.45 2-1-1.388-1-3.083-1c-1.755 0-2.929.463-2.725 1.075m37.86 6.957c-1.276 4.418-2.055 8.299-1.73 8.624 1.553 1.553 3.751-1.105 5.257-6.359.914-3.188 2.097-6.34 2.628-7.003 1.25-1.563.157-3.294-2.08-3.294-1.334 0-2.31 1.923-4.075 8.032M77.5 17.668c-2.75 1.417-5.141 2.7-5.314 2.851-.496.436 6.657 14.266 7.717 14.921 1.273.787 2.39-2.942 1.614-5.388-.467-1.47.104-2.322 2.324-3.47 3.839-1.985 5.545-6.586 3.516-9.483-1.89-2.698-3.718-2.593-9.857.569m91.522 1.308c-5.187 5.554-4.544 12.072 1.439 14.572 3.101 1.296 3.849 1.272 6.984-.223 2.758-1.315 3.271-1.962 2.394-3.019-.728-.877-2.22-1.138-4.292-.749-3.902.732-6.061-1.371-5.147-5.015.919-3.66 4.26-5.159 6.66-2.988 1.041.942 1.683 2.052 1.427 2.466-.256.415.239 1.338 1.1 2.052 1.292 1.073 1.724 1.049 2.474-.136 1.654-2.614.975-5.763-1.696-7.863-3.828-3.012-7.996-2.68-11.343.903M120 18.434c0 1.083.951 1.566 3.083 1.566 3.826 0 3.483-2.356-.41-2.816-1.894-.225-2.673.139-2.673 1.25m-41.559 2.662c-.373.603-.041 1.732.736 2.51 1.195 1.195 1.701 1.204 3.271.055 1.022-.746 1.537-1.876 1.146-2.509-.904-1.462-4.262-1.499-5.153-.056M114.5 31.119c-9.262 1.146-22.191 5.2-31.478 9.87C41.948 61.644 21.511 110.386 35.22 155c5.525 17.981 17.961 35.874 33.28 47.883 2.479 1.944 2.739 2.511 1.5 3.264-.825.502-3.957 2.361-6.959 4.133C58.162 213.158 51 220.74 51 223.027c0 .479 1.462.273 3.25-.458 1.788-.731 4.324-1.658 5.636-2.06 2.23-.682 2.336-.543 1.619 2.13-1.407 5.243-2.33 10.836-1.902 11.528.233.377 2.657-1.677 5.387-4.563 3.25-3.437 8.238-7.015 14.451-10.367 9.227-4.978 9.571-5.077 12.511-3.611 10.83 5.403 34.841 7.972 50.656 5.421 7.415-1.196 20.572-5.177 22.77-6.889 1.884-1.467 20.464 9.165 25.943 14.845 2.651 2.748 5.014 4.997 5.25 4.997.972 0 .328-6.035-1.064-9.981l-1.494-4.232 2.744.674c1.509.371 4.05 1.319 5.647 2.107 3.929 1.938 3.91 1.969 1.589-2.581-2.172-4.259-7.449-8.62-15.243-12.597-2.613-1.333-4.729-2.754-4.703-3.157.026-.403 2.584-2.758 5.685-5.233 7.206-5.753 17.203-18.369 22.179-27.991 14.178-27.413 14.588-58.8 1.13-86.509-14.68-30.225-41.488-49.234-75.439-53.491-9.116-1.143-13.132-1.124-23.102.11M36.85 48.338c-1.585 2.183-1.484 2.549 2.536 9.147C43.727 64.611 46 66.581 46 63.218c0-2.669 3.285-6.622 6.996-8.419l3.079-1.492-7.59-3.653c-4.175-2.01-8.13-3.64-8.788-3.623-.658.018-1.94 1.055-2.847 2.307m171.396.432c-3.903 3.646-4.704 6.444-2.863 10.003 2.303 4.455 4.139 5.539 8.116 4.793 3.022-.567 3.383-.919 2.546-2.481-.535-1.001-2.34-2.094-4.009-2.428-4.676-.935-3.6-6.55 1.546-8.07 2.698-.797 6.224 2.736 4.639 4.647-.754.908-.654 1.822.351 3.196 1.54 2.105 1.636 2.072 3.293-1.114 1.739-3.346 1.37-5.77-1.317-8.67-3.379-3.646-8.319-3.596-12.302.124M42 52.878c0 1.482 2.847 3.334 4.016 2.612.733-.453.495-1.143-.706-2.054-2.106-1.596-3.31-1.8-3.31-.558m-13.846 6.246c-1.208 1.935-.942 2.516 2.968 6.5 2.362 2.407 4.088 4.371 3.836 4.365-.252-.006-2.667-.681-5.367-1.5-6.247-1.895-6.076-1.915-7.334.846-1.045 2.294-.921 2.359 6.928 3.634 7.567 1.229 8.098 1.193 9.969-.679 1.969-1.969 1.955-2.003-3.706-8.633C32.323 59.996 29.702 57 29.623 57c-.078 0-.739.956-1.469 2.124m193.076 6.877c-1.799 1.097-3.769 3.087-4.377 4.423C214.626 75.31 218.577 82 223.688 82c5.744 0 12.235-7.199 10.621-11.778-1.128-3.2-4.643-6.222-7.233-6.218-1.417.002-4.048.901-5.846 1.997m.747 5.022c-1.607 1.607-1.805 2.43-.965 4 1.638 3.061 5.537 2.979 8.223-.172 3.875-4.547-2.944-8.142-7.258-3.828M17.495 80.414c-5.089 5.089-4.191 11.333 2.059 14.313 3.439 1.64 3.744 1.629 7.264-.258 2.63-1.41 4.029-3.054 4.925-5.79 1.501-4.581.531-6.969-3.723-9.169-4.198-2.17-7.756-1.865-10.525.904m1.542 4.517c-2.028 3.79 5.569 7.892 8.741 4.719 1.479-1.478 1.418-1.813-.759-4.129-2.818-3-6.545-3.276-7.982-.59m212.146 1.753c-5.588 1.93-7.178 2.887-6.731 4.05.321.838 1.079 3.491 1.685 5.895.634 2.52 1.685 4.371 2.482 4.371 1.46 0 1.802-1.541 1.465-6.603-.193-2.896.146-3.229 5.092-5.007 3.25-1.169 5.429-2.579 5.635-3.648.432-2.242-.739-2.127-9.628.942M52.045 92.893c-1.382 3.334-1.062 8.283.568 8.818 1.728.566 3.66-5.191 2.902-8.645-.844-3.839-1.93-3.893-3.47-.173M76.332 96c3.018 11.122 3.724 43.72 1.223 56.473-3.115 15.884-1.385 23.893 6.552 30.331l2.84 2.304 8.777-2.971c13.093-4.432 19.483-5.481 33.276-5.463 13.505.019 22.128 1.509 33.509 5.793l6.778 2.551 3.442-2.625c8.005-6.106 9.265-12.221 6.207-30.125-1.861-10.897-2.088-14.966-1.552-27.768.345-8.25 1.083-18.105 1.639-21.9.556-3.794.853-7.057.659-7.251-.373-.374-30.883 22.608-34.048 25.647-1.801 1.729-1.64 1.774 4.563 1.276 4.855-.389 7.229-.103 9.689 1.169 2.446 1.265 3.594 1.406 4.607.565 1.094-.908 1.478-.082 2.034 4.368.976 7.807.255 8.636-2.872 3.3-3.002-5.122-6.883-7.674-11.671-7.674-4.961 0-6.984 1.593-6.984 5.5 0 2.386-.914 4.471-3 6.847-2.303 2.623-3 4.382-3 7.567 0 8.31 6.242 17.478 12.729 18.695 4.32.81 11.57-1.902 14.274-5.34 1.114-1.416 2.327-2.272 2.696-1.903 1.129 1.129-6.858 8.531-10.503 9.734-1.886.623-5.608.923-8.27.667-9.006-.865-15.25-8.266-16.601-19.674-.556-4.694-.727-4.921-3.984-5.301-1.871-.219-3.613-.186-3.872.072-.258.258-.469 3.994-.469 8.303 0 5.518.369 7.878 1.25 7.985.688.084 1.888.198 2.668.255.78.056 1.568.55 1.751 1.097.206.616-2.624.914-7.418.78-9.265-.258-9.443-.292-6.251-1.176 2.115-.586 2.593-1.457 3.105-5.65.333-2.727.487-5.104.343-5.282-.144-.178-1.632.385-3.305 1.25-3.53 1.825-12.283 2.082-15.459.454-11.844-6.073-15.313-23.306-7.12-35.379 1.394-2.054 2.4-3.824 2.235-3.933-.438-.29-18.05-13.642-19.722-14.952-1.177-.923-1.306-.683-.745 1.384m-19.489 1.5c-.339 1.1-.956 2.9-1.372 4-.702 1.859-.633 1.886.973.378.985-.924 1.575-2.646 1.372-4-.328-2.188-.406-2.218-.973-.378m-8.205 3c.317.825.753 1.5.969 1.5.216 0 .393-.675.393-1.5s-.436-1.5-.969-1.5c-.532 0-.709.675-.393 1.5m-37.523 1.878c-1.531 1.63-2.415 4.127-2.808 7.937l-.574 5.559 2.884-.075c1.585-.041 4.826.257 7.2.663 3.58.611 4.552.421 5.69-1.113 1.697-2.284 2.862-8.612 2.055-11.155-1.422-4.479-10.834-5.662-14.447-1.816m225.385 1.991c-3.85.622-6.939 1.475-6.863 1.895.075.42.445 3.233.822 6.25.452 3.624 1.147 5.486 2.046 5.486 1.71 0 2.832-3.364 1.998-5.992-.698-2.199.915-3.138 7.986-4.653 2.568-.55 4.109-1.479 4.324-2.605.383-2.007-.137-2.026-10.313-.381m-223.557 2.738c-1.48 2.765-.256 3.907 4.936 4.604 3.912.524 4.121.421 4.121-2.044 0-4.517-6.958-6.483-9.057-2.56M55 106.961c2.475 1.018 4.888 1.482 5.363 1.032 1.745-1.656-.607-2.992-5.172-2.937l-4.691.056zm-.637 6.651c.225 3.92 4.641 2.545 4.636-1.444 0-.367-1.074-.73-2.387-.805-1.921-.111-2.36.328-2.249 2.249m43.404 1.75c-4.218 8.845-2.642 20.531 3.703 27.454 3.177 3.466 3.733 3.684 9.417 3.684 8.191 0 9.288-1.229 9.719-10.881l.337-7.54-10.513-8.039c-5.782-4.422-10.635-8.04-10.786-8.04-.15 0-.995 1.513-1.877 3.362m100.483-.247c-2.871 1.839-3.25 2.602-3.25 6.551 0 4.065-.187 4.409-2.072 3.811-1.323-.42-2.768-.027-4 1.088-1.593 1.442-1.928 3.113-1.928 9.625 0 7.194.153 7.799 1.75 6.948.963-.513 4.787-1.256 8.5-1.652 5.243-.558 6.764-1.084 6.813-2.352.046-1.179.303-1.043.921.488 1.014 2.51 5.954 4.097 7.08 2.274.568-.919 1.166-.809 2.417.442 3.099 3.099 3.569 1.876 3.087-8.047-.413-8.527-.738-9.911-2.669-11.367-1.209-.912-3.031-1.441-4.049-1.175-1.427.374-1.85-.074-1.85-1.958 0-2.636-3.729-6.802-6.064-6.774-.79.009-2.899.953-4.686 2.098M.36 128c0 5.225.169 7.363.375 4.75.206-2.613.206-6.888 0-9.5S.36 122.775.36 128m8.167-4.384c-1.214 1.214-1.543 3.142-1.322 7.75L7.5 137.5l7-.352c3.85-.193 7.788-.771 8.75-1.285 2.66-1.419 2.166-3.863-.781-3.863-3.996 0-4.299-2.871-.622-5.893 1.744-1.434 3.167-2.945 3.162-3.357-.014-1.166-6.476-.883-7.696.337-.783.783-1.275.783-1.759 0-1.005-1.626-5.187-1.311-7.027.529m223.14 1.051c-.367.366-.667 3.549-.667 7.073 0 5.562.231 6.363 1.75 6.074 1.199-.228 1.907-1.565 2.25-4.246.652-5.103 3-6.051 3-1.21 0 5.556 3.486 5.856 4.16.358.53-4.326 2.285-3.256 2.84 1.732.702 6.318 2.574 4.545 3.247-3.077l.541-6.128-4.533-.622c-5.928-.812-11.752-.791-12.588.046M203 126.941c0 1.132.45 2.059 1 2.059s1-.648 1-1.441-.45-1.719-1-2.059c-.55-.34-1 .309-1 1.441m-69.714 3.119c-2.938 2.24-5.434 3.509-5.786 2.94-1.31-2.12-2.613-.854-2.313 2.25.27 2.804.725 3.286 3.313 3.511 1.65.143 3.45-.082 4-.5 1.083-.824 6.642-11.452 6.214-11.881-.144-.143-2.586 1.513-5.428 3.68M11.64 127.774c-.932 1.508.521 5.226 2.043 5.226.984 0 1.348-.859 1.133-2.673-.319-2.694-2.17-4.182-3.176-2.553M203 133.5c0 1.375.45 2.5 1 2.5s1-1.125 1-2.5-.45-2.5-1-2.5-1 1.125-1 2.5m9 3.441c0 1.132.45 2.059 1 2.059s1-.648 1-1.441-.45-1.719-1-2.059c-.55-.34-1 .309-1 1.441m-22 1.618c0 .857.457 1.276 1.016.931.559-.346.758-1.047.441-1.559-.857-1.387-1.457-1.129-1.457.628m-175.749 4.932c-3.979 1.729-5.714 5.228-4.857 9.795.96 5.118 3.602 7.059 8.485 6.234 8.462-1.429 12.396-10.799 6.486-15.447-3.058-2.406-5.585-2.551-10.114-.582m218.737-.383c-4.468 1.601-6.972 8.46-4.707 12.892 1.817 3.555 7.488 3.739 8.801.285 1.189-3.127 1.237-2.968-1.082-3.575-1.1-.287-2-.088-2 .443s-.45.687-1 .347c-1.475-.912-1.215-4.077.448-5.457 1.133-.94 2.039-.912 4.158.128 3.863 1.895 5.333 4.614 3.318 6.138-1.82 1.375-3.11 5.458-1.951 6.174 1.436.888 5.969-4.656 6.613-8.088.784-4.18.175-5.87-2.782-7.718-3.259-2.036-6.893-2.617-9.816-1.569m-218.467 5.513c-3.391 3.392.287 7.536 5.167 5.82 1.536-.54 2.947-1.782 3.135-2.76.801-4.16-5.046-6.315-8.302-3.06m208.046 19.987c-3.058 7.641-3.033 7.392-.752 7.392 1.089 0 2.482-1.399 3.484-3.5 2.823-5.92 4.426-4.408 2.588 2.441-.765 2.85 3.048 2.301 4.304-.62 1.594-3.704 1.515-3.621 2.734-2.868.718.445.58 1.797-.434 4.223-1.835 4.392-1.863 5.324-.16 5.324 1.381 0 2.533-1.873 5.07-8.244 1.721-4.319 2.128-3.913-8.084-8.054l-6.182-2.507zM23.734 163.6c-1.151 1.15 1.556 5.299 3.653 5.598 3.354.479 2.855 4.993-.69 6.24-4.305 1.514-6.269-.263-5.88-5.319.245-3.171-.035-4.119-1.214-4.119-3.845 0-4.795 8.215-1.444 12.475 1.88 2.39 2.671 2.677 6.112 2.215 8.527-1.143 12.676-9.834 7.274-15.235-2.274-2.275-6.41-3.257-7.811-1.855m95.756 18.416c-.346.559-1.048.757-1.562.439-.514-.317-2.958-.273-5.431.098-3.17.475-4.52 1.157-4.576 2.311-.05 1.034-.264 1.177-.583.388-.505-1.251-1.383-1.168-9.688.914-3.113.78-3.752 1.335-3.343 2.899.278 1.064.098 1.935-.401 1.935-.498 0-.906-.675-.906-1.5 0-1.709-.863-1.872-2.943-.556-1.175.743-1.223 1.397-.254 3.522 1.068 2.346 1.416 2.483 3.443 1.357 1.24-.689 2.479-1.305 2.754-1.369 3.854-.902 6-1.856 6-2.669 0-.55.729-.719 1.621-.377 1.246.478 1.498.156 1.093-1.393-.608-2.324.786-2.76 1.648-.515.823 2.146 2.162 1.852 3.418-.75.863-1.791 1.098-1.893 1.152-.5.078 2.018 1.661 2.346 2.406.5.388-.961.522-.948.583.059.046.77.582.998 1.301.554.672-.416 2.859-.637 4.86-.493 3.47.251 3.633.121 3.528-2.801-.078-2.167-.605-3.065-1.801-3.067-.93-.001-1.974.455-2.319 1.014m7.51 2.073c0 2.636.191 2.809 1.919 1.73 1.483-.927 2.244-.929 3.352-.009.867.72 3.352 1.009 6.299.733 3.095-.29 5.129-.03 5.589.715.398.644 1.763 1.241 3.033 1.328 2.279.155 4.053.671 8.67 2.525 1.661.667 2.831.568 3.942-.331 1.091-.884 1.357-.909.86-.08-.424.706.115 1.647 1.308 2.285 1.115.597 2.035.732 2.043.3.009-.432.428-.133.932.663.733 1.159 1.161.909 2.147-1.254 1.432-3.143.626-4.536-1.57-2.714-1.251 1.038-1.524.995-1.524-.241 0-2.285-4.093-2.955-5.749-.941-1.279 1.555-1.358 1.508-.919-.547.62-2.904-1.287-4.138-2.027-1.311-.7 2.68-2.91 2.104-2.514-.656.407-2.834-3.799-3.97-4.518-1.219-.279 1.064-.956 1.935-1.506 1.935s-.765-.9-.477-2c.395-1.512-.003-2.045-1.634-2.185-3.896-.333-6.148-.615-6.656-.831-.275-.118-2.863-.351-5.75-.518-5.207-.303-5.25-.281-5.25 2.623m7-.089c0 .55.45 1 1 1s1-.45 1-1-.45-1-1-1-1 .45-1 1m-36.273 4.936c-.351 1.34-.085 1.755.886 1.382 1.575-.604 1.817-1.934.501-2.748-.488-.301-1.112.314-1.387 1.366M113 192.159c-7.504 1.575-7.51 1.602-1.343 6.332 3.214 2.465 8.295 6.679 11.293 9.363l5.45 4.882 8.129-7.233c4.472-3.979 9.332-8.021 10.8-8.983 1.469-.963 2.671-2.082 2.671-2.488 0-2.462-27.549-3.857-37-1.873m-24.25 9.414c-2.062 1.351-3.75 3.125-3.75 3.942 0 1.855.705 1.853 6-.015 5.513-1.945 6-1.9 6 .559 0 1.132.45 1.781 1 1.441 1.84-1.137 1.027-4.334-1.635-6.427-3.198-2.516-2.988-2.53-7.615.5m72.478-1.296c-2.727 1.258-3.84 4.886-2.27 7.401 1.03 1.65 1.082 1.618.549-.344-.848-3.12.565-3.502 6.468-1.749 2.872.853 5.458 1.315 5.747 1.026 1.107-1.107-.623-3.194-4.347-5.247-3.07-1.692-4.347-1.918-6.147-1.087m-78.527 25.355c-1.226 1.227-.754 7.079.666 8.258 1.039.862 1.664.778 2.6-.35 1.088-1.311 1.407-1.309 2.738.022 2.314 2.314 4.467-.04 4.096-4.476-.237-2.819-.729-3.586-2.301-3.586-1.397 0-2.089.765-2.296 2.538-.163 1.396-1.175 3.087-2.25 3.759-1.804 1.126-1.954.941-1.954-2.411 0-3.269.166-3.494 1.663-2.258 1.425 1.176 1.592 1.158 1.167-.128-.545-1.651-3.025-2.472-4.129-1.368m11.415 4.118c.064 2.613.322 3.963.573 3 .252-.963.842-1.75 1.311-1.75s1.059.787 1.311 1.75c.251.963.509-.387.573-3 .101-4.122-.148-4.75-1.884-4.75s-1.985.628-1.884 4.75m5.551-4.083c-.367.366-.667 2.391-.667 4.5 0 3.127.357 3.833 1.941 3.833 1.068 0 2.221-.453 2.564-1.008.384-.622 1.212-.418 2.165.535 2.019 2.019 4.294.269 4.42-3.399.084-2.456.152-2.415 1.029.622 1.285 4.451 2.355 4.076 3.574-1.25.566-2.475.642-4.5.168-4.5-.473 0-.861.9-.861 2s-.45 2-1 2-1-.844-1-1.875c0-1.375-.733-1.879-2.75-1.89-1.513-.008-3.272.408-3.911.924-.734.593-1.399.553-1.809-.11-.73-1.181-2.855-1.391-3.863-.382m17.309.083c-.013.412-.399 2.363-.857 4.333-.799 3.436-.721 3.584 1.881 3.584s2.68-.148 1.881-3.584c-.458-1.97-.844-3.921-.857-4.333-.013-.412-.474-.75-1.024-.75s-1.011.338-1.024.75m6.65.783c-.974 2.539-.739 5.954.496 7.189 1.436 1.436 3.878.522 3.878-1.451 0-1.234-.279-1.284-1.5-.271-1.281 1.063-1.5.773-1.5-1.985 0-2.535.34-3.098 1.584-2.621 1.005.385 1.431.151 1.167-.643-.636-1.91-3.42-2.057-4.125-.218M129 229.5c0 4.023.238 4.492 2.25 4.421 1.238-.043 1.688-.306 1-.583-1.597-.645-1.638-3.338-.05-3.338.92 0 .925-.275.024-1.176-.859-.859-.88-1.534-.078-2.5.853-1.028.624-1.324-1.024-1.324-1.848 0-2.122.58-2.122 4.5m5-.07c0 3.857.303 4.57 1.941 4.57 1.068 0 2.236-.477 2.596-1.06.413-.669 1.148-.392 1.992.75 1.034 1.4 1.609 1.541 2.541.623 1.463-1.442 2.203-9.313.875-9.313-.52 0-.945 1.827-.945 4.059 0 5.097-1.947 4.304-2.132-.868l-.131-3.691L140 228c-.733 3.482-1.204 3.314-1.398-.5-.065-1.272-.921-2.116-2.352-2.32-2.052-.291-2.25.084-2.25 4.25m16 .071c0 4.883.955 5.763 2.513 2.314 1.511-3.346 3.466-3.426 3.623-.148.114 2.358.209 2.456.57.583.514-2.67 2.294-3.029 2.294-.463 0 1.071.802 1.848 2 1.938 1.722.13 2-.466 2-4.287 0-3.771-.3-4.438-2-4.438-1.111 0-2 .667-2 1.5 0 .825-.45 1.5-1 1.5s-1.001-.562-1.002-1.25c-.001-.714-1.503-1.357-3.5-1.499l-3.498-.25zm14-.11c0 4.287.084 4.4 3.561 4.806 1.958.229 3.773.072 4.032-.347.259-.419 1.019-.631 1.689-.47.67.161.88.103.468-.127-.412-.231-.75-1.002-.75-1.714s-.675-1.854-1.5-2.539c-2.042-1.695-1.894-3.076.25-2.321 1.383.486 1.502.347.567-.665-1.421-1.537-4.317-.644-4.317 1.332 0 .775.675 1.969 1.5 2.654 2.133 1.771 1.865 2.479-1.001 2.644-2.262.131-2.499-.224-2.499-3.75 0-2.142-.45-3.894-1-3.894s-1 1.976-1 4.391m-74.494-1.411c-.345 1.089-.164 2.776.403 3.75.841 1.444 1.036 1.08 1.061-1.98.033-4.145-.504-4.794-1.464-1.77m17 0c-.345 1.089-.164 2.776.403 3.75.841 1.444 1.036 1.08 1.061-1.98.033-4.145-.504-4.794-1.464-1.77M95.5 228c.34.55.816 1 1.059 1s.441-.45.441-1-.477-1-1.059-1-.781.45-.441 1m5.5 2.059c0 1.785.417 2.802 1 2.441.55-.34 1-1.716 1-3.059 0-1.343-.45-2.441-1-2.441s-1 1.377-1 3.059m59.079-.476c.048 1.165.285 1.402.604.605.289-.722.253-1.585-.079-1.917-.332-.332-.568.258-.525 1.312M117.5 230c.34.55.816 1 1.059 1s.441-.45.441-1-.477-1-1.059-1-.781.45-.441 1m18.579 1.583c.048 1.165.285 1.402.604.605.289-.722.253-1.585-.079-1.917-.332-.332-.568.258-.525 1.312M145.5 234c.34.55.816 1 1.059 1s.441-.45.441-1-.477-1-1.059-1-.781.45-.441 1m-26.25 9.718c-.687.247-1.25.909-1.25 1.472s.675.765 1.5.448c1.903-.73 1.916.43.032 2.921-2.042 2.7-1.886 3.443.718 3.426 1.808-.013 1.956-.202.75-.964-1.312-.83-1.281-1.168.25-2.699 1.667-1.667 1.75-1.644 1.75.495 0 2.701 2.453 3.882 4.513 2.172 1.033-.857 1.487-.891 1.487-.111 0 .617.9 1.122 2 1.122 1.667 0 2-.667 2-4s-.333-4-2-4c-1.1 0-2 .52-2 1.155 0 .695-.723.501-1.814-.486-1.361-1.232-2.099-1.356-2.957-.498-.789.789-1.545.827-2.437.121-.71-.563-1.854-.821-2.542-.574M134 246c0 1.111.667 2 1.5 2 .825 0 1.5.661 1.5 1.469 0 .894-.586 1.243-1.5.893-.825-.317-1.5-.078-1.5.531 0 1.746 3.993 1.289 4.694-.538.389-1.015-.099-2.178-1.277-3.039-1.643-1.202-1.7-1.526-.412-2.34 1.198-.758 1.048-.948-.755-.961-1.588-.01-2.25.573-2.25 1.985m-9 2.108c0 1.774.309 2.916.687 2.538 1.013-1.013 1.116-4.65.149-5.247-.46-.285-.836.935-.836 2.709m5-.108c0 1.65.45 3 1 3s1-1.35 1-3-.45-3-1-3-1 1.35-1 3"/><path fill="#1976D2" fill-opacity=".628" fill-rule="evenodd" d="M104.988 2.482C75.96 7.967 47.902 24.679 29.689 47.333 9.761 72.119 1 96.754 1 128c0 31.246 8.761 55.881 28.689 80.667 6.628 8.244 19.244 20.011 26.561 24.773l2.75 1.79v-2.989c0-1.644.675-4.903 1.5-7.241s1.5-4.418 1.5-4.622c0-.203-2.362.528-5.25 1.626-6.198 2.355-5.75 2.292-5.75.808 0-2.797 4.994-8.243 11.5-12.54 3.85-2.544 7.182-4.765 7.405-4.936.222-.171-1.803-2.224-4.5-4.561-11.249-9.747-21.261-22.877-26.722-35.042-19.009-42.352-4.329-93.155 34.558-119.593 7.217-4.907 20.346-10.872 29.259-13.293 11.934-3.242 36.504-3.232 48.499.019 33.324 9.032 58.435 33.472 68.689 66.852 2.478 8.069 2.702 10.202 2.755 26.282.05 15.368-.223 18.474-2.238 25.5-5.08 17.704-14.633 33.165-28.484 46.101l-7.561 7.061 5.387 2.642c6.275 3.078 12.94 8.802 15.091 12.964.83 1.605 1.337 3.09 1.126 3.301-.211.211-2.774-.525-5.697-1.636-4.741-1.801-5.245-1.839-4.672-.347 1.619 4.219 2.775 10.529 2.202 12.022-.559 1.456-.315 1.439 2.136-.157 12.203-7.943 29.315-26.188 37.642-40.138 7.673-12.853 13.597-28.698 16.149-43.194 1.902-10.8 1.902-33.438 0-44.238-7.64-43.392-38.949-81.299-79.83-96.655-17.286-6.492-22.459-7.44-42.694-7.818-13.089-.244-20.697.07-26.012 1.074m10.124 4.405c-1.102.716-1.239 2.623-.661 9.248.401 4.591.892 8.61 1.091 8.933.532.861 13.667-.877 14.741-1.951 1.065-1.065 1.063-3.505-.009-11.117l-.774-5.5-6.5-.258c-3.575-.142-7.125.148-7.888.645m23.35.175c-.771 1.246-2.832 16.901-2.296 17.437.264.264 3.228.856 6.586 1.316 5.692.778 6.144.694 6.664-1.24.868-3.234.826-3.281-3.522-3.976l-4.106-.657.64-3.721c.352-2.046.873-4.902 1.158-6.345.435-2.207.109-2.701-2.058-3.115-1.417-.271-2.796-.136-3.066.301m-35.879 1.803c-.294.476-.003 3.398.647 6.495.916 4.37.911 5.899-.025 6.835-1.806 1.806-3.255-.166-4.683-6.372-1.082-4.704-1.496-5.291-3.562-5.051-1.285.149-2.549.484-2.809.743-.963.964 2.034 11.451 3.98 13.924 2.526 3.212 7.497 3.428 11.234.488 2.94-2.312 3.15-4.031 1.497-12.26C107.874 8.748 107.42 8 105.421 8c-1.267 0-2.544.389-2.838.865m54.121 9.803c-1.438 4.768-2.383 9.043-2.1 9.5.283.458 1.5.825 2.705.816 1.873-.014 2.575-1.255 4.842-8.562l2.651-8.547-2.466-.937c-1.357-.516-2.59-.938-2.742-.938-.152 0-1.452 3.901-2.89 8.668M120 12c0 .55.9 1 2 1s2-.45 2-1-.9-1-2-1-2 .45-2 1m-43.75 5.259C73.912 18.433 72 19.992 72 20.722c0 2.37 6.988 15.278 8.263 15.263.68-.009 1.886-.427 2.68-.929 1.206-.763 1.234-1.372.17-3.708-.832-1.826-.917-2.913-.243-3.138 2.879-.96 6.13-4.591 6.13-6.848 0-6.59-4.754-8.12-12.75-4.103m94.631-.779C167.94 18.105 165 23.519 165 27.312c0 6.054 11.335 10.29 15.429 5.766 1.666-1.84 1.629-1.994-.85-3.618-2.131-1.396-2.863-1.47-4.134-.414-1.275 1.058-1.841.987-3.236-.408-1.536-1.537-1.551-1.938-.161-4.414 1.911-3.405 5.32-3.653 5.779-.42.192 1.354 1.352 2.694 2.815 3.25 3.533 1.343 3.505 1.372 3.165-3.204-.227-3.065-.961-4.622-2.807-5.955-3.583-2.587-7.106-3.08-10.119-1.415m-50.187 1.159c-1.043 1.043.278 2.361 2.365 2.361 1.068 0 1.941-.675 1.941-1.5 0-1.483-3.07-2.097-4.306-.861m-40.686 3.335c-1.127.713-1.209 1.225-.337 2.097C81.04 24.44 83 23.48 83 21.441c0-1.664-.881-1.801-2.992-.467M37.192 47.295C35.987 48.579 35 49.989 35 50.428 35 51.886 44.19 66 45.139 66c.513 0 1.8-2.025 2.861-4.5 1.143-2.666 2.584-4.5 3.536-4.5 1.693 0 4.465-2.284 4.463-3.679-.001-.634-7.839-4.601-15.986-8.09-.345-.148-1.615.781-2.821 2.064m172.732-.022c-6.678 4.5-7.533 10.209-2.31 15.432 2.078 2.078 3.17 2.429 6.083 1.957 1.953-.317 3.792-.818 4.087-1.113.917-.917-2.879-4.421-5.138-4.743-3.221-.459-3.351-4.298-.215-6.353 3.575-2.342 5.973-1.221 5.238 2.45-.418 2.093-.042 3.354 1.385 4.645 2.142 1.94 2.166 1.932 3.811-1.232 1.906-3.667 1.291-6.36-2.265-9.916-3.993-3.993-6.095-4.215-10.676-1.127M43.658 54.551c.306.797.958 1.449 1.449 1.449 1.438 0 1.026-1.735-.556-2.342-.969-.372-1.265-.076-.893.893m-15.851 4.974c-1.03 2.26-.798 2.889 2.217 6 3.824 3.945 3.758 4.015-1.903 2.018-4.03-1.422-4.171-1.397-5.761 1.031-.897 1.369-1.365 2.755-1.04 3.08.326.325 4.462 1.382 9.192 2.348l8.599 1.758 1.54-2.351c1.408-2.148 1.382-2.549-.305-4.667C34.88 61.88 30.483 57 29.767 57c-.446 0-1.328 1.136-1.96 2.525m193.166 6.179c-3.726 2.568-4.906 4.471-4.941 7.969-.041 4.04 4.224 9.327 7.523 9.327 4.069 0 9.287-3.147 10.918-6.585 1.674-3.527.911-7.228-2.198-10.663-2.045-2.26-8.056-2.286-11.302-.048m1.544 6.277c-1.467 1.622-1.564 2.257-.533 3.5.694.836 2.036 1.519 2.983 1.519 2.348 0 5.411-3.572 4.686-5.463-.833-2.169-5.006-1.91-7.136.444M19.11 78.396c-5.43 3.009-6.829 11.106-2.596 15.03 6.878 6.373 16.32 2.616 16.667-6.632.171-4.538-.595-5.624-5.554-7.876-4.884-2.218-5.401-2.25-8.517-.522m213.39 7.187c-3.85 1.334-7.541 2.626-8.201 2.871-.883.327-.645 2.119.893 6.746 1.152 3.465 2.216 6.449 2.365 6.631.15.182 1.25-.192 2.445-.832 2.127-1.139 2.223-2.643.461-7.235-.396-1.032 1.125-1.928 5.545-3.267 5.513-1.669 6.063-2.081 5.792-4.343-.165-1.375-.75-2.612-1.3-2.748-.55-.137-4.15.843-8 2.177m-212.833-.916c-1.524 1.523-.469 3.513 2.531 4.774C25.973 91.028 28 90.5 28 87.928c0-2.867-6.273-5.322-8.333-3.261M77.394 97.75c1.12 3.706 2.606 22.971 2.606 33.791 0 6.497-.668 14.448-1.565 18.644-.861 4.023-1.61 10.69-1.664 14.815-.116 8.72 1.339 12.297 6.85 16.839l3.663 3.02 5.108-2.074c7.176-2.914 18.711-5.582 28.108-6.502l8-.783.292-7.75.292-7.75h-7.042c-5.441 0-7.042-.325-7.042-1.43 0-.787 1.013-1.575 2.25-1.75 1.87-.266 2.302-1.037 2.557-4.57.335-4.622-.048-4.899-3.807-2.75-5.387 3.08-15.743.763-20.702-4.632-3.721-4.047-5.631-9.845-5.608-17.03.017-5.635.517-7.543 3.243-12.373 1.772-3.14 2.85-6.036 2.395-6.434C92.679 106.714 78.015 96 77.492 96c-.345 0-.389.787-.098 1.75M13 100.294c-2.994 1.514-4.55 4.612-5.426 10.799l-.65 4.593 8.693 1.216c9.922 1.388 9.813 1.449 10.806-6.031.791-5.967-.443-8.564-4.971-10.456-4.13-1.725-5.248-1.741-8.452-.121m225.05 3.422c-4.648.743-8.637 1.538-8.866 1.767-.481.48 1.542 12.576 2.216 13.25.247.247 1.433.137 2.636-.244 1.905-.605 2.108-1.187 1.574-4.524-.685-4.289-.587-4.36 7.64-5.522 4.114-.58 4.75-.982 4.75-2.998 0-1.28-.338-2.496-.75-2.703-.412-.208-4.553.231-9.2.974M14.2 106.2c-2.12 2.12-1.439 4.8 1.218 4.8 1.33 0 3.13.273 4 .607 1.196.459 1.582-.036 1.582-2.025 0-1.905-.708-2.901-2.565-3.607-3.145-1.195-2.796-1.214-4.235.225m83.865 9.55c-2.133 4.67-2.441 12.444-.727 18.34 2.972 10.223 10.75 14.602 19.499 10.977l3.239-1.341-.288-8.099-.288-8.099-9.5-7.254c-5.225-3.99-9.765-7.259-10.089-7.264-.325-.006-1.155 1.227-1.846 2.74m-89.006 7.001c-1.902 1.541-2.126 2.581-1.86 8.671l.301 6.921 7.063-.233c10.514-.346 10.898-.464 11.253-3.449.284-2.383-.011-2.661-2.819-2.661-2.68 0-3.09-.327-2.817-2.25.2-1.407 1.123-2.365 2.464-2.556 1.362-.194 2.316-1.205 2.616-2.774.619-3.237-.273-3.652-5.382-2.504-2.647.595-4.91.602-5.998.02-2.29-1.226-2.304-1.223-4.821.815M231 130.5v7.25c0 .412 1.012.75 2.25.75 1.932 0 2.293-.6 2.557-4.25.37-5.101 2.193-5.725 2.193-.75 0 3.044.318 3.5 2.44 3.5 2.082 0 2.497-.549 2.832-3.75.359-3.436.406-3.352.56 1 .154 4.355.376 4.75 2.668 4.75 2.22 0 2.501-.42 2.511-3.75.006-2.062.29-5.437.631-7.5l.62-3.75H231zm-219-.583c0 1.228.646 2.083 1.573 2.083.932 0 1.442-.68 1.25-1.667-.486-2.509-2.823-2.853-2.823-.416m114 5.614c0 1.358.579 2.469 1.286 2.469.707 0 1.285-.889 1.285-1.975 0-1.087-.578-2.197-1.285-2.469-.834-.32-1.286.375-1.286 1.975M126 149c0 6.74.258 8 1.636 8 1.371 0 1.533-.752 1-4.64-.35-2.551-.636-6.151-.636-8 0-1.848-.45-3.36-1-3.36-.583 0-1 3.333-1 8m-114.141-4.165c-2.439 2.179-3.151 3.614-3.077 6.201.225 7.907 5.354 11.329 12.748 8.506 5.056-1.931 6.47-3.863 6.47-8.841 0-8.455-9.414-11.877-16.141-5.866m218.635-.583c-3.84 3.303-4.486 9.521-1.351 13.012 3.399 3.787 6.919 3.983 8.108.453 1.356-4.025.291-6.07-2.76-5.304-1.764.443-2.491.217-2.491-.772 0-2.304 2.607-3.778 5.431-3.069 3.812.957 4.788 3.439 2.474 6.296-2.45 3.026-2.49 6.132-.079 6.132 4.5 0 8.649-9.376 6.185-13.979-1.311-2.449-6.65-5.021-10.423-5.021-1.362 0-3.654 1.013-5.094 2.252M14.93 149.584c-1.5 1.808-.237 4.715 2.265 5.208 2.375.469 6.03-3.042 5.259-5.051-.849-2.213-5.733-2.315-7.524-.157m206.929 19.375c-1.434 3.828-2.364 7.203-2.067 7.5 1.673 1.673 4.394.204 5.945-3.209 2.106-4.636 2.148-4.698 2.768-4.079.277.278-.009 1.976-.636 3.774-.916 2.628-.868 3.442.246 4.147 2.385 1.511 3.408 1.01 4.648-2.276.661-1.751 1.461-2.925 1.778-2.608.317.317-.135 2.279-1.005 4.361-1.261 3.017-1.324 3.948-.309 4.593 2.186 1.387 3.612.923 4.336-1.412.384-1.238 1.597-4.18 2.696-6.538 1.098-2.359 1.827-4.422 1.619-4.585-.595-.466-16.318-6.638-16.895-6.632-.284.003-1.69 3.137-3.124 6.964M23 164.066c0 1.962 2.056 4.934 3.413 4.934.738 0 1.945.727 2.682 1.615 1.15 1.385 1.001 1.889-1.047 3.547-1.312 1.063-3.323 1.799-4.467 1.635-1.764-.252-2.042-.907-1.824-4.297.142-2.2-.204-4.675-.768-5.5-.868-1.271-1.404-1.071-3.507 1.306-2.865 3.238-3.011 4.492-1.067 9.146 1.511 3.616 4.144 5.548 7.559 5.548 2.93 0 9.65-3.578 10.403-5.539 1.634-4.259-.597-11.564-3.922-12.84-2.611-1.002-7.455-.713-7.455.445m91.688 18.58c-1.058 1.057-.815 4.551.268 3.881.526-.325.703-1.252.393-2.059-.309-.807-.065-1.468.544-1.468s1.107.9 1.107 2 .435 2 .968 2c1.205 0-.265-4.266-1.626-4.719-.532-.178-1.276-.013-1.654.365m5.428 1.604c-.084 2.002.36 2.746 1.634 2.735 1.111-.01 1.336-.284.616-.75-.624-.404-1.359-1.635-1.634-2.735-.383-1.533-.527-1.358-.616.75m6.884-.215c0 1.753.289 1.88 2.083.92 1.657-.886 2.468-.767 3.963.587 1.034.935 2.571 1.435 3.417 1.111 1.67-.641 2.078-3.201.65-4.083-.488-.302-.825.186-.75 1.083.075.898-.494 1.853-1.265 2.123-.994.349-1.249-.092-.876-1.517.417-1.595.037-2.009-1.848-2.009-1.306 0-2.374.394-2.374.875s-.477.875-1.059.875-.781-.45-.441-1 .141-1-.441-1-1.059.916-1.059 2.035m12.698-1.399c-.384.383-.698 1.511-.698 2.506 0 1.528.398 1.657 2.565.833 3.325-1.264 3.435-1.247 3.435.525 0 2.031 3.627 1.913 4.417-.143.346-.904.405-1.868.13-2.143-.275-.275-.784.239-1.13 1.143-.849 2.212-2.417 2.088-2.417-.19 0-1.009-.562-1.855-1.25-1.881-.687-.026-1.949-.34-2.802-.698-.854-.358-1.866-.336-2.25.048M111.158 185c0 1.375.227 1.938.504 1.25.278-.687.278-1.812 0-2.5-.277-.687-.504-.125-.504 1.25m-6.126-.45c-.037 1.225 2.006 3.45 3.168 3.45.44 0 .8-.525.8-1.167 0-.641-.293-.873-.651-.515-.358.358-1.244-.13-1.968-1.084-.725-.953-1.332-1.262-1.349-.684m-4.676 1.077c-1.321.541-.595 4.373.828 4.373.523 0 .665-.9.316-2-.349-1.1-.207-2 .316-2s1.21.993 1.528 2.206c.317 1.214.802 1.982 1.077 1.707.275-.275.24-1.493-.077-2.707-.559-2.138-1.61-2.554-3.988-1.579m50.484 1.058c-.586 2.068 1.626 4.182 2.97 2.839.288-.288.03-.524-.574-.524-.603 0-1.25-1.012-1.437-2.25l-.34-2.25zm4.54.767c-1.346 3.509 2.823 4.906 4.62 1.548.726-1.356.737-2 .035-2-.569 0-1.035.675-1.035 1.5s-.705 1.5-1.567 1.5c-1.113 0-1.383-.581-.933-2 .723-2.278-.27-2.764-1.12-.548m-60.605.106c-1.015 1.015.432 4.442 1.877 4.442 1.151 0 1.198-.424.248-2.25-1.501-2.884-1.467-2.849-2.125-2.192m66.832 2.024c-.848 2.209-.761 2.631.393 1.918.55-.34 1-.156 1 .41 0 .565.749.74 1.664.389 1.119-.43 1.427-.256.941.531-.398.644-.299 1.17.219 1.17.519 0 1.189-.941 1.49-2.091.469-1.795.206-2.005-1.857-1.488-1.872.47-2.275.269-1.823-.909.319-.831.13-1.512-.42-1.512s-1.273.712-1.607 1.582m-72.064.349a1.086 1.086 0 0 0 .336 1.494c.501.31 1.169-.109 1.485-.931.622-1.62-.881-2.085-1.821-.563m2.904 1.984c.311.503.101 1.144-.466 1.425-.567.28-.485.403.181.273 1.586-.311 2.346-2.613.862-2.613-.628 0-.888.412-.577.915m24.067.154c-2.743.458-6.043 1.098-7.334 1.422l-2.348.589 2.834 2.142c1.559 1.177 6.281 5.209 10.494 8.96 4.213 3.75 7.926 6.818 8.25 6.818.325 0 .59-4.725.59-10.5V191l-3.75.118c-2.062.064-5.994.492-8.736.951M88.975 202.25c-3.791 2.569-5.451 5.574-2.361 4.276 1.037-.436 3.833-1.266 6.212-1.845 3.508-.854 4.498-.781 5.235.383.631.997.913 1.054.924.186.02-1.659-3.63-5.25-5.337-5.25-.744 0-2.847 1.012-4.673 2.25m71.248-.693c-1.223.856-2.216 2.318-2.208 3.25.013 1.433.159 1.467.946.221.776-1.227 1.647-1.28 5.235-.318 2.367.635 5.153 1.482 6.19 1.882 3.045 1.173 1.45-1.76-2.361-4.342-3.936-2.667-4.867-2.749-7.802-.693m2.01 14.577c-12.123 5.558-33.123 8.132-48.307 5.921-4.634-.675-12.407-2.505-17.273-4.066l-8.846-2.84-8.654 4.676c-8.74 4.722-20.078 14.675-18.48 16.222 2.346 2.27 17.08 9.233 26.241 12.4C100.965 253.304 111.598 255 128 255c16.708 0 27.308-1.738 41.853-6.861 10.872-3.83 25.257-10.968 25.882-12.844.742-2.226-9.902-11.181-18.895-15.897-5.137-2.694-9.565-4.97-9.84-5.059-.275-.088-2.42.719-4.767 1.795m-78.983 8.528c-1.863.752-1.64 9.251.263 9.981.832.32 2.142.059 2.911-.58.943-.782 1.606-.823 2.037-.125.889 1.438 6.54.67 7.62-1.035.714-1.128.891-1.06.904.347.011 1.267.828 1.75 2.956 1.75 1.618 0 3.233-.472 3.589-1.049.444-.718 1.089-.682 2.046.112 1.977 1.641 4.406.415 4.524-2.282.098-2.257.106-2.256.777.145 1.062 3.799 2.8 3.524 3.987-.629l1.085-3.797-.52 3.75c-.497 3.588.748 5.155 1.988 2.5.466-1 .7-1 1.166 0 .321.688 1.047 1.25 1.614 1.25.66 0 .78-1.707.334-4.75-.737-5.035-2.407-7.779-3.277-5.387-.419 1.151-.633 1.151-1.375 0-.74-1.147-1.018-1.148-1.754-.006-.5.775-1.128.948-1.464.403-.763-1.234-6.455-1.403-7.19-.213-.324.524-1.36.415-2.436-.257-1.442-.901-2.216-.885-3.365.069-.891.739-1.728.855-2.079.288-.732-1.184-7.683-1.138-9.252.062-.698.534-1.42.47-1.809-.16-.691-1.118-1.291-1.189-3.28-.387m41 0c-.737.298-1.25 2.33-1.25 4.953 0 4.816 1.836 6.596 4.513 4.374.903-.749 1.487-.826 1.487-.195 0 1.346 8.786 1.36 9.617.016.401-.648.943-.525 1.477.333.688 1.105 1.222 1.123 2.875.099 1.785-1.106 2.031-1.016 2.031.75 0 2.627 1.615 2.59 2.306-.053.33-1.262-.013-2.273-.884-2.607-.872-.335-1.422-1.965-1.422-4.217v-3.67l-8-.149c-5.351-.099-8 .225-8 .978 0 .794-.354.772-1.2-.074-1.279-1.279-1.595-1.327-3.55-.538m25.75 5.065c0 2.9.45 5.273 1 5.273s1-.852 1-1.893.675-2.152 1.5-2.469c1.065-.408 1.5.091 1.5 1.72 0 2.239.248 2.297 10 2.331 7.79.028 10-.266 10-1.327 0-.749-.338-1.376-.75-1.393-.412-.018-1.552-1.134-2.532-2.481-1.565-2.151-1.583-2.373-.149-1.823 1.215.466 1.54.141 1.269-1.269-.473-2.452-4.192-2.51-4.662-.072-.193 1.004.331 2.579 1.164 3.5 1.377 1.523 1.294 1.689-.912 1.82-2.157.128-2.428-.266-2.428-3.536v-3.68l-8 .013-8 .013zm-66-.227c0 1.756.42 2.276 1.5 1.862.825-.317 1.5-1.155 1.5-1.862 0-.707-.675-1.545-1.5-1.862-1.08-.414-1.5.106-1.5 1.862m6.195 0c.02 1.65.244 2.204.498 1.231.254-.973.237-2.323-.037-3-.274-.677-.481.119-.461 1.769m11 0c.02 1.65.244 2.204.498 1.231.254-.973.237-2.323-.037-3-.274-.677-.481.119-.461 1.769m6 0c.02 1.65.244 2.204.498 1.231.254-.973.237-2.323-.037-3-.274-.677-.481.119-.461 1.769m17.805.102c0 2.165.207 2.285 2 1.166 1.1-.687 2-1.538 2-1.892 0-.353-.9-.878-2-1.166-1.592-.416-2-.03-2 1.892m6.813-1.919c.721.289 1.584.253 1.916-.079.332-.332-.258-.568-1.312-.525-1.165.048-1.402.285-.604.604M132 231c-1.282.828-1.246.972.25.985.963.008 1.75-.435 1.75-.985 0-1.22-.113-1.22-2 0m-13.47 12.803c-.963.963-.551 3.328.47 2.697.55-.34 1-.168 1 .382s-.45 1.278-1 1.618c-.55.34-1 1.451-1 2.469 0 1.539.764 1.839 4.539 1.782 2.497-.038 4.787-.469 5.089-.959.303-.489 1.185-.362 1.961.282 1.03.854 1.769.874 2.735.072.964-.8 1.632-.79 2.457.035.846.846 1.527.808 2.677-.146 1.794-1.489 2.036-4.611.435-5.601-.774-.479-.708-.93.222-1.505 1.046-.646.959-.963-.406-1.487-.954-.366-2.36-.147-3.124.488-1.062.881-1.501.848-1.857-.138-.373-1.034-.884-1.046-2.551-.062-1.146.676-2.319.85-2.605.386-.566-.915-8.176-1.179-9.042-.313m6.628 4.197c0 1.375.227 1.938.504 1.25.278-.687.278-1.812 0-2.5-.277-.687-.504-.125-.504 1.25m-3.52.5c-.316.825-.139 1.5.393 1.5.533 0 .969-.675.969-1.5s-.177-1.5-.393-1.5c-.216 0-.652.675-.969 1.5M134 249c0 .55.702 1 1.559 1s1.281-.45.941-1c-.34-.55-1.041-1-1.559-1s-.941.45-.941 1"/></svg>