<svg xmlns="http://www.w3.org/2000/svg" version="1.1" xmlns:xlink="http://www.w3.org/1999/xlink" xmlns:svgjs="http://svgjs.dev/svgjs" width="1440" height="560" preserveAspectRatio="none" viewBox="0 0 1440 560">
    <g mask="url(&quot;#SvgjsMask1009&quot;)" fill="none">
        <rect width="1440" height="560" x="0" y="0" fill="rgba(231, 233, 235, 1)"></rect>
        <path d="M1432.02 453.99L1444.88 453.99L1444.88 507.92L1432.02 507.92z" fill="rgba(187, 222, 251, 1)"></path>
        <path d="M917.21 441.1L933.55 441.1L933.55 457.44L917.21 457.44z" stroke="rgba(13, 71, 161, 1)"></path>
        <path d="M711.85 437.25a8.05 8.05 0 1 0 15.56 4.16z" stroke="rgba(187, 222, 251, 1)"></path>
        <path d="M465.23 22.44a12.91 12.91 0 1 0 22.2 13.18z" stroke="rgba(187, 222, 251, 1)"></path>
        <path d="M232.72 88.59L275.6 88.59L275.6 131.47L232.72 131.47z" stroke="#e73635"></path>
        <path d="M1365.17 423.62a20.65 20.65 0 1 0 14.91-38.52z" fill="rgba(233, 200, 7, 1)"></path>
        <path d="M576.74 186.87 a45.71 45.71 0 1 0 91.42 0 a45.71 45.71 0 1 0 -91.42 0z" fill="rgba(187, 222, 251, 1)"></path>
        <path d="M521.24 401.08a7.21 7.21 0 1 0 4.6 13.67z" stroke="rgba(187, 222, 251, 1)"></path>
        <path d="M55.28 138.4L90.76 138.4L90.76 173.88L55.28 173.88z" fill="rgba(13, 71, 161, 1)"></path>
        <path d="M114.18 521.86L157.34 521.86L157.34 565.02L114.18 565.02z" fill="rgba(13, 71, 161, 1)"></path>
        <path d="M1097.4 250.01 a39.57 39.57 0 1 0 79.14 0 a39.57 39.57 0 1 0 -79.14 0z" fill="#e73635"></path>
        <path d="M316.98 92.94L356.31 92.94L356.31 96.86L316.98 96.86z" fill="#e73635"></path>
        <path d="M344.24 328.01 a13.9 13.9 0 1 0 27.8 0 a13.9 13.9 0 1 0 -27.8 0z" stroke="rgba(187, 222, 251, 1)"></path>
        <path d="M85.42 64.79L131.39 64.79L131.39 110.76L85.42 110.76z" stroke="rgba(187, 222, 251, 1)"></path>
        <path d="M1069.17 30.21L1122.25 30.21L1122.25 37.51L1069.17 37.51z" fill="rgba(187, 222, 251, 1)"></path>
        <path d="M635.68 105.04 a17.04 17.04 0 1 0 34.08 0 a17.04 17.04 0 1 0 -34.08 0z" stroke="rgba(233, 200, 7, 1)"></path>
        <path d="M608.03 4.49L639.87 4.49L639.87 30.61L608.03 30.61z" stroke="rgba(13, 71, 161, 1)"></path>
        <path d="M721.98 33.27L724.82 33.27L724.82 55.76L721.98 55.76z" stroke="#e73635"></path>
        <path d="M545.59 514.16L560.44 514.16L560.44 561.74L545.59 561.74z" stroke="#e73635"></path>
        <path d="M707.72-8.21a54.82 54.82 0 1 0 104.78 32.3z" stroke="rgba(187, 222, 251, 1)"></path>
        <path d="M1399.3 329.98L1410.99 329.98L1410.99 341.67L1399.3 341.67z" fill="#e73635"></path>
        <path d="M144.94 22.13a37.3 37.3 0 1 0-29.45 68.54z" fill="rgba(233, 200, 7, 1)"></path>
        <path d="M839.89 386.44L869.17 386.44L869.17 415.72L839.89 415.72z" fill="rgba(187, 222, 251, 1)"></path>
        <path d="M676.21 31.62L692.34 31.62L692.34 47.75L676.21 47.75z" fill="rgba(187, 222, 251, 1)"></path>
        <path d="M268.54 321.64a41.48 41.48 0 1 0 77.92 28.48z" stroke="rgba(233, 200, 7, 1)"></path>
        <path d="M516.66 104.59L562.72 104.59L562.72 138.51L516.66 138.51z" fill="rgba(187, 222, 251, 1)"></path>
        <path d="M792.95 453.18L843.81 453.18L843.81 472.65L792.95 472.65z" fill="#e73635"></path>
        <path d="M875.4 252.96L907.68 252.96L907.68 268.59L875.4 268.59z" fill="rgba(13, 71, 161, 1)"></path>
        <path d="M1218.43 54.52L1232.82 54.52L1232.82 90.96L1218.43 90.96z" fill="rgba(233, 200, 7, 1)"></path>
        <path d="M973.6 135.17 a48.53 48.53 0 1 0 97.06 0 a48.53 48.53 0 1 0 -97.06 0z" stroke="rgba(233, 200, 7, 1)"></path>
        <path d="M371.3 469a55.07 55.07 0 1 0 65.99-88.18z" fill="rgba(187, 222, 251, 1)"></path>
        <path d="M54.2 522.44a18.45 18.45 0 1 0 35.07 11.48z" stroke="rgba(13, 71, 161, 1)"></path>
        <path d="M1272.11 390.58a9.75 9.75 0 1 0-12.81 14.7z" fill="rgba(13, 71, 161, 1)"></path>
    </g>
    <defs>
        <mask id="SvgjsMask1009">
            <rect width="1440" height="560" fill="#ffffff"></rect>
        </mask>
    </defs>
</svg>
