<svg xmlns="http://www.w3.org/2000/svg" version="1.1" xmlns:xlink="http://www.w3.org/1999/xlink" xmlns:svgjs="http://svgjs.dev/svgjs" width="1440" height="560" preserveAspectRatio="none" viewBox="0 0 1440 560">
    <g mask="url(&quot;#SvgjsMask1231&quot;)" fill="none">
        <rect width="186.20000000000002" height="186.20000000000002" clip-path="url(&quot;#SvgjsClipPath1232&quot;)" x="126.46" y="-49.42" fill="url(&quot;#SvgjsPattern1233&quot;)" transform="rotate(137.83, 219.56, 43.68)"></rect>
        <path d="M1219.96 458.26a5.6 5.6 0 1 0 10.75 3.15 5.6 5.6 0 1 0-10.75-3.15zM1235.32 462.76a5.6 5.6 0 1 0 10.74 3.15 5.6 5.6 0 1 0-10.74-3.15zM1250.67 467.26a5.6 5.6 0 1 0 10.75 3.15 5.6 5.6 0 1 0-10.75-3.15zM1266.02 471.76a5.6 5.6 0 1 0 10.75 3.15 5.6 5.6 0 1 0-10.75-3.15zM1184.75 464.61a5.6 5.6 0 1 0 10.75 3.15 5.6 5.6 0 1 0-10.75-3.15zM1200.11 469.11a5.6 5.6 0 1 0 10.74 3.15 5.6 5.6 0 1 0-10.74-3.15zM1215.46 473.61a5.6 5.6 0 1 0 10.75 3.15 5.6 5.6 0 1 0-10.75-3.15zM1230.81 478.11a5.6 5.6 0 1 0 10.75 3.15 5.6 5.6 0 1 0-10.75-3.15zM1149.54 470.96a5.6 5.6 0 1 0 10.75 3.15 5.6 5.6 0 1 0-10.75-3.15zM1164.9 475.46a5.6 5.6 0 1 0 10.75 3.15 5.6 5.6 0 1 0-10.75-3.15zM1180.25 479.96a5.6 5.6 0 1 0 10.75 3.15 5.6 5.6 0 1 0-10.75-3.15zM1195.61 484.46a5.6 5.6 0 1 0 10.74 3.15 5.6 5.6 0 1 0-10.74-3.15z" fill="rgba(3, 22, 224, 1)"></path>
        <path d="M920.7800000000001 119 L973.9000000000001 164.75L978.7135672252973 110.5014327747028z" stroke="#e73635" stroke-width="2.23" stroke-dasharray="4, 4"></path>
        <path d="M1279.02 63.13L1266.39 61.02 1265.68 48.23 1253.05 46.12 1252.34 33.33 1239.71 31.22 1239 18.43" stroke="rgba(3, 22, 224, 1)" stroke-width="1"></path>
        <path d="M66.25 309.58a5.6 5.6 0 1 0 0.52 11.19 5.6 5.6 0 1 0-0.52-11.19zM66.99 325.56a5.6 5.6 0 1 0 0.52 11.19 5.6 5.6 0 1 0-0.52-11.19zM67.73 341.54a5.6 5.6 0 1 0 0.51 11.19 5.6 5.6 0 1 0-0.51-11.19zM68.46 357.53a5.6 5.6 0 1 0 0.52 11.19 5.6 5.6 0 1 0-0.52-11.19z" fill="rgba(3, 22, 224, 1)"></path>
        <path d="M1182.36 360.16L1169.7 358.22 1168.81 345.45 1156.15 343.51 1155.26 330.74 1142.6 328.8 1141.71 316.03" stroke="rgba(3, 22, 224, 1)" stroke-width="1.4" stroke-dasharray="2, 2"></path>
        <circle r="82.29208532181092" cx="906.18" cy="339.15" stroke="#d3b714" stroke-width="1.39" stroke-dasharray="3, 2"></circle>
        <path d="M1434.99 137.43 L1456.05 135.89L1431.5105516668398 122.65055166683986z" stroke="rgba(3, 22, 224, 1)" stroke-width="2.33" stroke-dasharray="4, 4"></path>
        <rect width="237.2" height="237.2" clip-path="url(&quot;#SvgjsClipPath1234&quot;)" x="988.31" y="211.65" fill="url(&quot;#SvgjsPattern1235&quot;)" transform="rotate(258.13, 1106.91, 330.25)"></rect>
        <path d="M912.72 291.31 L903.59 408.48L960.9053542914901 402.64535429149004z" stroke="rgba(3, 22, 224, 1)" stroke-width="2.19" stroke-dasharray="3, 3"></path>
        <path d="M1179.81 345.40999999999997 L1217.1200000000001 304.88L1218.0706884942151 344.750688494215z" fill="#d3b714"></path>
        <rect width="167.16" height="167.16" clip-path="url(&quot;#SvgjsClipPath1236&quot;)" x="1315.86" y="385.73" fill="url(&quot;#SvgjsPattern1237&quot;)" transform="rotate(285.32, 1399.44, 469.31)"></rect>
    </g>
    <defs>
        <mask id="SvgjsMask1231">
            <rect width="1440" height="560" fill="#ffffff"></rect>
        </mask>
        <pattern x="0" y="0" width="13.3" height="13.3" patternUnits="userSpaceOnUse" id="SvgjsPattern1233">
            <path d="M0 13.3L6.65 0L13.3 13.3" stroke="#e73635" fill="none"></path>
        </pattern>
        <clipPath id="SvgjsClipPath1232">
            <circle r="46.550000000000004" cx="219.56" cy="43.68"></circle>
        </clipPath>
        <pattern x="0" y="0" width="237.2" height="11.86" patternUnits="userSpaceOnUse" id="SvgjsPattern1235">
            <rect width="237.2" height="5.93" x="0" y="0" fill="#037b0b"></rect>
            <rect width="237.2" height="5.93" x="0" y="5.93" fill="rgba(0, 0, 0, 0)"></rect>
        </pattern>
        <clipPath id="SvgjsClipPath1234">
            <circle r="59.3" cx="1106.91" cy="330.25"></circle>
        </clipPath>
        <pattern x="0" y="0" width="11.94" height="11.94" patternUnits="userSpaceOnUse" id="SvgjsPattern1237">
            <path d="M5.97 1L5.97 10.94M1 5.97L10.94 5.97" stroke="#037b0b" fill="none" stroke-width="1.35"></path>
        </pattern>
        <clipPath id="SvgjsClipPath1236">
            <circle r="41.79" cx="1399.44" cy="469.31"></circle>
        </clipPath>
    </defs>
</svg>
