<svg xmlns="http://www.w3.org/2000/svg" version="1.1" xmlns:xlink="http://www.w3.org/1999/xlink" xmlns:svgjs="http://svgjs.dev/svgjs" width="1440" height="560" preserveAspectRatio="none" viewBox="0 0 1440 560">
    <g mask="url(&quot;#SvgjsMask1014&quot;)" fill="none">
        <path d="M867.0421741457382 342.7650625879985L808.9115817715174 388.1816588702981 906.1017723820772 452.6692492904794z" fill="rgba(28, 83, 142, 0.4)" class="triangle-float3"></path>
        <path d="M389.05 521.35 a116.2 116.2 0 1 0 232.4 0 a116.2 116.2 0 1 0 -232.4 0z" fill="rgba(28, 83, 142, 0.4)" class="triangle-float2"></path>
        <path d="M981.44 197.78 a154.64 154.64 0 1 0 309.28 0 a154.64 154.64 0 1 0 -309.28 0z" fill="rgba(28, 83, 142, 0.4)" class="triangle-float2"></path>
        <path d="M-41.263764286221864 283.01392947772706L113.3773845629203 296.54327691665196 126.90673200184517 141.90212806750978-27.734416847296977 128.3727806285849z" fill="rgba(28, 83, 142, 0.4)" class="triangle-float1"></path>
        <path d="M665.81 207.02 a168.84 168.84 0 1 0 337.68 0 a168.84 168.84 0 1 0 -337.68 0z" fill="rgba(28, 83, 142, 0.4)" class="triangle-float1"></path>
        <path d="M780.9001786875203 350.7697543301605L689.549895778721 438.9856971106386 777.765838559199 530.335980019438 869.1161214679985 442.12003723895987z" fill="rgba(28, 83, 142, 0.4)" class="triangle-float2"></path>
        <path d="M1272.186,572.795C1310.136,573.896,1345.745,555.467,1366.383,523.6C1389.098,488.526,1399.892,443.734,1379.33,407.356C1358.514,370.529,1314.463,355.47,1272.186,356.949C1232.571,358.334,1195.779,379.364,1177.281,414.422C1159.871,447.419,1167.825,486.394,1187.002,518.396C1205.563,549.37,1236.091,571.748,1272.186,572.795" fill="rgba(28, 83, 142, 0.4)" class="triangle-float3"></path>
        <path d="M1310.7555550681348 486.3072013806283L1403.6049985637076 448.7935911542174 1366.0913883372966 355.9441476586445 1273.2419448417238 393.4577578850555z" fill="rgba(28, 83, 142, 0.4)" class="triangle-float1"></path>
        <path d="M404.06854363313505 306.17415543403604L307.1568295363536 311.25308315636136 409.14747135546037 403.0858695308175z" fill="rgba(28, 83, 142, 0.4)" class="triangle-float1"></path>
        <path d="M1207.544075198784 59.82892692004407L1048.2404126404263 20.11006288876476 1008.521548609147 179.41372544712243 1167.8252111675047 219.13258947840174z" fill="rgba(28, 83, 142, 0.4)" class="triangle-float3"></path>
        <path d="M1001.79 283.6 a131.39 131.39 0 1 0 262.78 0 a131.39 131.39 0 1 0 -262.78 0z" fill="rgba(28, 83, 142, 0.4)" class="triangle-float2"></path>
        <path d="M1310.8477019576417 356.4868730923479L1428.8211687945225 311.2011020852259 1383.5353977874006 193.22763524834505 1265.5619309505198 238.51340625546703z" fill="rgba(28, 83, 142, 0.4)" class="triangle-float2"></path>
        <path d="M343.97 74.63 a137.25 137.25 0 1 0 274.5 0 a137.25 137.25 0 1 0 -274.5 0z" fill="rgba(28, 83, 142, 0.4)" class="triangle-float2"></path>
        <path d="M526.175,407.542C551.173,408.332,578.003,403.806,591.688,382.872C606.488,360.232,605.505,330.479,591.795,307.163C578.267,284.155,552.864,271.193,526.175,271.453C499.943,271.709,475.309,285.399,462.734,308.421C450.628,330.584,453.845,357.678,467.459,378.948C480.037,398.6,502.854,406.805,526.175,407.542" fill="rgba(28, 83, 142, 0.4)" class="triangle-float1"></path>
        <path d="M1130.06 130.81 a157.65 157.65 0 1 0 315.3 0 a157.65 157.65 0 1 0 -315.3 0z" fill="rgba(28, 83, 142, 0.4)" class="triangle-float2"></path>
        <path d="M313.7685038575318 116.32412644139558L401.53164326618895 116.32412644139556 401.5316432661889 28.56098703273844 313.7685038575318 28.560987032738453z" fill="rgba(28, 83, 142, 0.4)" class="triangle-float3"></path>
        <path d="M1171.3056037706258 475.070979569713L1300.4197698555647 579.8294648031277 1325.65844749787 436.69381113913045z" fill="rgba(28, 83, 142, 0.4)" class="triangle-float3"></path>
        <path d="M1362.981890400884 353.5930846988231L1468.3902394716513 227.9723060043116 1342.7694607771398 122.56395693354432 1237.3611117063724 248.1847356280558z" fill="rgba(28, 83, 142, 0.4)" class="triangle-float2"></path>
        <path d="M507.3358364981939 579.5302568249484L540.4683881862815 424.381061709704 407.845278466482 464.928015421505z" fill="rgba(28, 83, 142, 0.4)" class="triangle-float2"></path>
        <path d="M1461.043,220.772C1506.933,220.751,1539.259,179.603,1559.7,138.517C1577.694,102.349,1575.785,61.831,1558.218,25.453C1537.51,-17.431,1508.661,-65.179,1461.043,-65.786C1412.87,-66.4,1380.448,-20.456,1359.478,22.918C1341.483,60.14,1343.346,101.828,1362.227,138.609C1383.195,179.455,1415.13,220.793,1461.043,220.772" fill="rgba(28, 83, 142, 0.4)" class="triangle-float1"></path>
    </g>
    <defs>
        <mask id="SvgjsMask1014">
            <rect width="1440" height="560" fill="#ffffff"></rect>
        </mask>
        <style>
            @keyframes float1 {
                    0%{transform: translate(0, 0)}
                    50%{transform: translate(-10px, 0)}
                    100%{transform: translate(0, 0)}
                }

                .triangle-float1 {
                    animation: float1 5s infinite;
                }

                @keyframes float2 {
                    0%{transform: translate(0, 0)}
                    50%{transform: translate(-5px, -5px)}
                    100%{transform: translate(0, 0)}
                }

                .triangle-float2 {
                    animation: float2 4s infinite;
                }

                @keyframes float3 {
                    0%{transform: translate(0, 0)}
                    50%{transform: translate(0, -10px)}
                    100%{transform: translate(0, 0)}
                }

                .triangle-float3 {
                    animation: float3 6s infinite;
                }
        </style>
    </defs>
</svg>
